{
	"patcher" : 	{
		"fileversion" : 1,
		"appversion" : 		{
			"major" : 6,
			"minor" : 1,
			"revision" : 6,
			"architecture" : "x86"
		}
,
		"rect" : [ 197.0, 44.0, 1013.0, 591.0 ],
		"bglocked" : 0,
		"openinpresentation" : 0,
		"default_fontsize" : 12.0,
		"default_fontface" : 0,
		"default_fontname" : "Helvetica Neue",
		"gridonopen" : 0,
		"gridsize" : [ 15.0, 15.0 ],
		"gridsnaponopen" : 0,
		"statusbarvisible" : 0,
		"toolbarvisible" : 1,
		"boxanimatetime" : 200,
		"imprint" : 0,
		"enablehscroll" : 1,
		"enablevscroll" : 1,
		"devicewidth" : 0.0,
		"description" : "",
		"digest" : "",
		"tags" : "",
		"boxes" : [ 			{
				"box" : 				{
					"id" : "obj-350",
					"maxclass" : "button",
					"numinlets" : 1,
					"numoutlets" : 1,
					"outlettype" : [ "bang" ],
					"patching_rect" : [ 85.0, 420.0, 20.0, 20.0 ]
				}

			}
, 			{
				"box" : 				{
					"fontname" : "Helvetica Neue",
					"fontsize" : 12.0,
					"id" : "obj-152",
					"maxclass" : "newobj",
					"numinlets" : 1,
					"numoutlets" : 1,
					"outlettype" : [ "" ],
					"patcher" : 					{
						"fileversion" : 1,
						"appversion" : 						{
							"major" : 6,
							"minor" : 1,
							"revision" : 6,
							"architecture" : "x86"
						}
,
						"rect" : [ 235.0, 175.0, 1036.0, 527.0 ],
						"bglocked" : 0,
						"openinpresentation" : 0,
						"default_fontsize" : 12.0,
						"default_fontface" : 0,
						"default_fontname" : "Helvetica Neue",
						"gridonopen" : 0,
						"gridsize" : [ 15.0, 15.0 ],
						"gridsnaponopen" : 0,
						"statusbarvisible" : 2,
						"toolbarvisible" : 1,
						"boxanimatetime" : 200,
						"imprint" : 0,
						"enablehscroll" : 1,
						"enablevscroll" : 1,
						"devicewidth" : 0.0,
						"description" : "",
						"digest" : "",
						"tags" : "",
						"boxes" : [ 							{
								"box" : 								{
									"fontname" : "Helvetica Neue",
									"fontsize" : 12.0,
									"id" : "obj-7",
									"linecount" : 18,
									"maxclass" : "message",
									"numinlets" : 2,
									"numoutlets" : 1,
									"outlettype" : [ "" ],
									"patching_rect" : [ 50.0, 75.0, 972.0, 256.0 ],
									"text" : "files A1_grlg_mf2_norm A1_grsh_mf1_norm1 A1_orlg_mf1_norm1 A1_orsh_mf1_norm1 A2_grsh_mf1_norm1 A2_orsh_mf1_norm1 A3_grsh_mf1_norm1 A3_orsh_mf1_norm1 A4_grlg_mf1_norm A4_grsh_mf1_norm1 A4_orlg_mf1_norm1-49 A4_orlg_mf1_norm1 A4_orsh_mf1_norm1 A5_grsh_mf1_norm1 A5_orlg_mf1_norm1 A5_orsh_mf1_norm1 A6_grsh_mf1_norm1 A7_grsh_mf1_norm1 A_A1_grsh_mf1_norm1_-49 A_A2_grsh_mf1_norm1_-49 A_A3_grsh_mf1_norm1_-49 A_A5_grsh_mf1_norm1_-49 A_A6_grsh_mf1_norm1_-49 A_A7_grsh_mf1_norm1_-49 Bf5_grlg_mf1_norm-49 Bf5_orlg_mf1_norm1-49 C1_grlg_mf1_norm C1_grsh_mf1_norm1 C1_orlg_mf1_norm1 C1_orsh_mf1_norm1 C3_grlg_mf1_norm C3_grsh_mf1_norm1 C3_orlg_mf1_norm1 C3_orsh_mf1_norm1 C4_grsh_mf1_norm1 C4_orsh_mf1_norm1 C5_grsh_mf1_norm1 C5_orsh_mf1_norm1 C6_grlg_mf1_norm-49 C6_orlg_mf1_norm1-49 C7_grsh_mf1_norm1 C7_grsh_mf1_norm1_-49 C7_orsh_mf1_norm1 C7_orsh_mf1_norm1_-49 C8_grsh_mf1_norm1 C8_grsh_mf1_norm1_-49 C8_orsh_mf1_norm1 C8_orsh_mf1_norm1_-49 D1_grsh_mf1_norm1-31 D5_grlg_mf1_norm-31 D5_orlg_mf2_norm1-31 D__Eb1_orsh_mf1_norm1_-31 D__Eb4_grsh_mf1_norm1_-31 D__Eb4_orsh_mf1_norm1_-31 Db1_grlg_mf1_norm-31 Db1_orlg_mf1_norm1-31 Db2_grsh_mf1_norm-31 Db2_orsh_mf1_norm1-31 Db4_grlg_mf1_norm-31 Db4_orlg_mf1_norm1-31 Db6_grsh_mf1_norm1-31 Db6_orsh_mf1_norm1-31 Db_C3_grsh_mf1_norm1_-31 Db_C3_orsh_mf1_norm1_-31 Db_C5_grsh_mf1_norm1_-31 Db_C5_orsh_mf1_norm1_-31 Db_C7_grsh_mf1_norm1_-31 Db_C7_orsh_mf1_norm1_-31 Eb1_grlg_mf1_norm Eb1_grsh_mf1_norm1 Eb1_orlg_mf1_norm1 Eb1_orsh_mf1_norm1 Eb2_grlg_mf1_norm Eb2_grsh_mf1_norm1 Eb2_orlg_mf1_norm1 Eb2_orsh_mf2_norm1 Eb3_grlg_mf1_norm Eb3_grsh_mf1_norm1 Eb3_orlg_mf1_norm1 Eb3_orsh_mf2_norm1 Eb4_grlg_mf1_norm Eb4_grsh_mf1_norm1 Eb4_orlg_mf1_norm1 Eb4_orsh_mf1_norm1 Eb5_grlg_mf1_norm Eb5_orlg_mf1_norm1 Eb5_orsh_mf1_norm1 Eb6_grlg_mf1_norm Eb6_grsh_mf1_norm1 Eb6_orsh_mf1_norm1 Eb7_grsh_mf1_norm1 Eb7_orsh_mf1_norm1 Fs1_grsh_mf1_norm1 Fs1_orsh_mf1_norm1 Fs1_orsh_mf2_norm1 Fs2_grlg_mf1_norm Fs2_grsh_mf1_norm1 Fs2_orlg_mf1_norm1 Fs2_orsh_mf1_norm1 Fs3_grsh_mf1_norm1 Fs3_orsh_mf3_norm1 Fs4_grsh_mf1_norm1 Fs4_orsh_mf1_norm1 Fs5_grlg_mf1_norm Fs5_grsh_mf1_norm1 Fs5_orlg_mf1_norm1 Fs5_orsh_mf1_norm1 Fs6_grsh_mf1_norm1 Fs6_orlg_mf1_norm1 Fs6_orsh_mf1_norm1 Fs7_grsh_mf1_norm1 Fs7_orsh_mf1_norm1 _A4_grlg_mf1_norm-49 __A1_orsh_mf1_norm1_-49 __A2_orsh_mf1_norm1_-49 __A3_orsh_mf1_norm1_-49 __A5_orsh_mf1_norm1_-49 __A6_orsh_f1_norm1_-49 __A7_orsh_f1_norm1_-49 knock_2_norm1 knock_3_norm1 knock_4_norm1 knock_5_norm1 knock_7_norm1 tape_a4_norm1 tape_b4_norm1 tape_c#5_norm1 tape_c5_norm1 tape_d5_norm1 tape_e5_norm1 tape_g5_norm1"
								}

							}
, 							{
								"box" : 								{
									"comment" : "",
									"id" : "obj-150",
									"maxclass" : "inlet",
									"numinlets" : 0,
									"numoutlets" : 1,
									"outlettype" : [ "bang" ],
									"patching_rect" : [ 50.0, 40.0, 25.0, 25.0 ]
								}

							}
, 							{
								"box" : 								{
									"comment" : "",
									"id" : "obj-151",
									"maxclass" : "outlet",
									"numinlets" : 1,
									"numoutlets" : 0,
									"patching_rect" : [ 50.0, 450.0, 25.0, 25.0 ]
								}

							}
 ],
						"lines" : [ 							{
								"patchline" : 								{
									"destination" : [ "obj-7", 0 ],
									"disabled" : 0,
									"hidden" : 0,
									"source" : [ "obj-150", 0 ]
								}

							}
, 							{
								"patchline" : 								{
									"destination" : [ "obj-151", 0 ],
									"disabled" : 0,
									"hidden" : 0,
									"source" : [ "obj-7", 0 ]
								}

							}
 ]
					}
,
					"patching_rect" : [ 85.0, 450.0, 89.0, 20.0 ],
					"saved_object_attributes" : 					{
						"default_fontface" : 0,
						"default_fontname" : "Helvetica Neue",
						"default_fontsize" : 12.0,
						"description" : "",
						"digest" : "",
						"fontface" : 0,
						"fontname" : "Helvetica Neue",
						"fontsize" : 12.0,
						"globalpatchername" : "",
						"tags" : ""
					}
,
					"text" : "p makeBuffers"
				}

			}
, 			{
				"box" : 				{
					"fontname" : "Helvetica Neue",
					"fontsize" : 12.0,
					"id" : "obj-1",
					"maxclass" : "newobj",
					"numinlets" : 1,
					"numoutlets" : 2,
					"outlettype" : [ "float", "bang" ],
					"patching_rect" : [ 85.0, 375.0, 81.0, 20.0 ],
					"text" : "buffer~ blank"
				}

			}
, 			{
				"box" : 				{
					"fontname" : "Helvetica Neue",
					"fontsize" : 12.0,
					"id" : "obj-2",
					"maxclass" : "newobj",
					"numinlets" : 1,
					"numoutlets" : 1,
					"outlettype" : [ "" ],
					"patching_rect" : [ 85.0, 480.0, 102.0, 20.0 ],
					"saved_object_attributes" : 					{
						"filename" : "makeBuffers.js",
						"parameter_enable" : 0
					}
,
					"text" : "js makeBuffers.js"
				}

			}
, 			{
				"box" : 				{
					"fontname" : "Helvetica Neue",
					"fontsize" : 12.0,
					"id" : "obj-3",
					"maxclass" : "newobj",
					"numinlets" : 1,
					"numoutlets" : 2,
					"outlettype" : [ "float", "bang" ],
					"patching_rect" : [ 50.0, 50.0, 272.0, 20.0 ],
					"text" : "buffer~ A1_grlg_mf2_norm A1_grlg_mf2_norm.aif"
				}

			}
, 			{
				"box" : 				{
					"fontname" : "Helvetica Neue",
					"fontsize" : 12.0,
					"id" : "obj-4",
					"maxclass" : "newobj",
					"numinlets" : 1,
					"numoutlets" : 2,
					"outlettype" : [ "float", "bang" ],
					"patching_rect" : [ 70.0, 70.0, 292.0, 20.0 ],
					"text" : "buffer~ A1_grsh_mf1_norm1 A1_grsh_mf1_norm1.aif"
				}

			}
, 			{
				"box" : 				{
					"fontname" : "Helvetica Neue",
					"fontsize" : 12.0,
					"id" : "obj-5",
					"maxclass" : "newobj",
					"numinlets" : 1,
					"numoutlets" : 2,
					"outlettype" : [ "float", "bang" ],
					"patching_rect" : [ 90.0, 90.0, 286.0, 20.0 ],
					"text" : "buffer~ A1_orlg_mf1_norm1 A1_orlg_mf1_norm1.aif"
				}

			}
, 			{
				"box" : 				{
					"fontname" : "Helvetica Neue",
					"fontsize" : 12.0,
					"id" : "obj-6",
					"maxclass" : "newobj",
					"numinlets" : 1,
					"numoutlets" : 2,
					"outlettype" : [ "float", "bang" ],
					"patching_rect" : [ 110.0, 110.0, 292.0, 20.0 ],
					"text" : "buffer~ A1_orsh_mf1_norm1 A1_orsh_mf1_norm1.aif"
				}

			}
, 			{
				"box" : 				{
					"fontname" : "Helvetica Neue",
					"fontsize" : 12.0,
					"id" : "obj-7",
					"maxclass" : "newobj",
					"numinlets" : 1,
					"numoutlets" : 2,
					"outlettype" : [ "float", "bang" ],
					"patching_rect" : [ 130.0, 130.0, 292.0, 20.0 ],
					"text" : "buffer~ A2_grsh_mf1_norm1 A2_grsh_mf1_norm1.aif"
				}

			}
, 			{
				"box" : 				{
					"fontname" : "Helvetica Neue",
					"fontsize" : 12.0,
					"id" : "obj-8",
					"maxclass" : "newobj",
					"numinlets" : 1,
					"numoutlets" : 2,
					"outlettype" : [ "float", "bang" ],
					"patching_rect" : [ 150.0, 150.0, 292.0, 20.0 ],
					"text" : "buffer~ A2_orsh_mf1_norm1 A2_orsh_mf1_norm1.aif"
				}

			}
, 			{
				"box" : 				{
					"fontname" : "Helvetica Neue",
					"fontsize" : 12.0,
					"id" : "obj-9",
					"maxclass" : "newobj",
					"numinlets" : 1,
					"numoutlets" : 2,
					"outlettype" : [ "float", "bang" ],
					"patching_rect" : [ 170.0, 170.0, 292.0, 20.0 ],
					"text" : "buffer~ A3_grsh_mf1_norm1 A3_grsh_mf1_norm1.aif"
				}

			}
, 			{
				"box" : 				{
					"fontname" : "Helvetica Neue",
					"fontsize" : 12.0,
					"id" : "obj-10",
					"maxclass" : "newobj",
					"numinlets" : 1,
					"numoutlets" : 2,
					"outlettype" : [ "float", "bang" ],
					"patching_rect" : [ 190.0, 190.0, 292.0, 20.0 ],
					"text" : "buffer~ A3_orsh_mf1_norm1 A3_orsh_mf1_norm1.aif"
				}

			}
, 			{
				"box" : 				{
					"fontname" : "Helvetica Neue",
					"fontsize" : 12.0,
					"id" : "obj-11",
					"maxclass" : "newobj",
					"numinlets" : 1,
					"numoutlets" : 2,
					"outlettype" : [ "float", "bang" ],
					"patching_rect" : [ 210.0, 210.0, 272.0, 20.0 ],
					"text" : "buffer~ A4_grlg_mf1_norm A4_grlg_mf1_norm.aif"
				}

			}
, 			{
				"box" : 				{
					"fontname" : "Helvetica Neue",
					"fontsize" : 12.0,
					"id" : "obj-12",
					"maxclass" : "newobj",
					"numinlets" : 1,
					"numoutlets" : 2,
					"outlettype" : [ "float", "bang" ],
					"patching_rect" : [ 230.0, 230.0, 292.0, 20.0 ],
					"text" : "buffer~ A4_grsh_mf1_norm1 A4_grsh_mf1_norm1.aif"
				}

			}
, 			{
				"box" : 				{
					"fontname" : "Helvetica Neue",
					"fontsize" : 12.0,
					"id" : "obj-13",
					"maxclass" : "newobj",
					"numinlets" : 1,
					"numoutlets" : 2,
					"outlettype" : [ "float", "bang" ],
					"patching_rect" : [ 250.0, 250.0, 322.0, 20.0 ],
					"text" : "buffer~ A4_orlg_mf1_norm1-49 A4_orlg_mf1_norm1-49.aif"
				}

			}
, 			{
				"box" : 				{
					"fontname" : "Helvetica Neue",
					"fontsize" : 12.0,
					"id" : "obj-14",
					"maxclass" : "newobj",
					"numinlets" : 1,
					"numoutlets" : 2,
					"outlettype" : [ "float", "bang" ],
					"patching_rect" : [ 270.0, 270.0, 286.0, 20.0 ],
					"text" : "buffer~ A4_orlg_mf1_norm1 A4_orlg_mf1_norm1.aif"
				}

			}
, 			{
				"box" : 				{
					"fontname" : "Helvetica Neue",
					"fontsize" : 12.0,
					"id" : "obj-15",
					"maxclass" : "newobj",
					"numinlets" : 1,
					"numoutlets" : 2,
					"outlettype" : [ "float", "bang" ],
					"patching_rect" : [ 290.0, 290.0, 292.0, 20.0 ],
					"text" : "buffer~ A4_orsh_mf1_norm1 A4_orsh_mf1_norm1.aif"
				}

			}
, 			{
				"box" : 				{
					"fontname" : "Helvetica Neue",
					"fontsize" : 12.0,
					"id" : "obj-16",
					"maxclass" : "newobj",
					"numinlets" : 1,
					"numoutlets" : 2,
					"outlettype" : [ "float", "bang" ],
					"patching_rect" : [ 310.0, 310.0, 292.0, 20.0 ],
					"text" : "buffer~ A5_grsh_mf1_norm1 A5_grsh_mf1_norm1.aif"
				}

			}
, 			{
				"box" : 				{
					"fontname" : "Helvetica Neue",
					"fontsize" : 12.0,
					"id" : "obj-17",
					"maxclass" : "newobj",
					"numinlets" : 1,
					"numoutlets" : 2,
					"outlettype" : [ "float", "bang" ],
					"patching_rect" : [ 330.0, 330.0, 286.0, 20.0 ],
					"text" : "buffer~ A5_orlg_mf1_norm1 A5_orlg_mf1_norm1.aif"
				}

			}
, 			{
				"box" : 				{
					"fontname" : "Helvetica Neue",
					"fontsize" : 12.0,
					"id" : "obj-18",
					"maxclass" : "newobj",
					"numinlets" : 1,
					"numoutlets" : 2,
					"outlettype" : [ "float", "bang" ],
					"patching_rect" : [ 350.0, 350.0, 292.0, 20.0 ],
					"text" : "buffer~ A5_orsh_mf1_norm1 A5_orsh_mf1_norm1.aif"
				}

			}
, 			{
				"box" : 				{
					"fontname" : "Helvetica Neue",
					"fontsize" : 12.0,
					"id" : "obj-19",
					"maxclass" : "newobj",
					"numinlets" : 1,
					"numoutlets" : 2,
					"outlettype" : [ "float", "bang" ],
					"patching_rect" : [ 370.0, 370.0, 292.0, 20.0 ],
					"text" : "buffer~ A6_grsh_mf1_norm1 A6_grsh_mf1_norm1.aif"
				}

			}
, 			{
				"box" : 				{
					"fontname" : "Helvetica Neue",
					"fontsize" : 12.0,
					"id" : "obj-20",
					"maxclass" : "newobj",
					"numinlets" : 1,
					"numoutlets" : 2,
					"outlettype" : [ "float", "bang" ],
					"patching_rect" : [ 390.0, 390.0, 292.0, 20.0 ],
					"text" : "buffer~ A7_grsh_mf1_norm1 A7_grsh_mf1_norm1.aif"
				}

			}
, 			{
				"box" : 				{
					"fontname" : "Helvetica Neue",
					"fontsize" : 12.0,
					"id" : "obj-21",
					"maxclass" : "newobj",
					"numinlets" : 1,
					"numoutlets" : 2,
					"outlettype" : [ "float", "bang" ],
					"patching_rect" : [ 410.0, 410.0, 368.0, 20.0 ],
					"text" : "buffer~ A_A1_grsh_mf1_norm1_-49 A_A1_grsh_mf1_norm1_-49.aif"
				}

			}
, 			{
				"box" : 				{
					"fontname" : "Helvetica Neue",
					"fontsize" : 12.0,
					"id" : "obj-22",
					"maxclass" : "newobj",
					"numinlets" : 1,
					"numoutlets" : 2,
					"outlettype" : [ "float", "bang" ],
					"patching_rect" : [ 430.0, 430.0, 368.0, 20.0 ],
					"text" : "buffer~ A_A2_grsh_mf1_norm1_-49 A_A2_grsh_mf1_norm1_-49.aif"
				}

			}
, 			{
				"box" : 				{
					"fontname" : "Helvetica Neue",
					"fontsize" : 12.0,
					"id" : "obj-23",
					"maxclass" : "newobj",
					"numinlets" : 1,
					"numoutlets" : 2,
					"outlettype" : [ "float", "bang" ],
					"patching_rect" : [ 450.0, 450.0, 368.0, 20.0 ],
					"text" : "buffer~ A_A3_grsh_mf1_norm1_-49 A_A3_grsh_mf1_norm1_-49.aif"
				}

			}
, 			{
				"box" : 				{
					"fontname" : "Helvetica Neue",
					"fontsize" : 12.0,
					"id" : "obj-24",
					"maxclass" : "newobj",
					"numinlets" : 1,
					"numoutlets" : 2,
					"outlettype" : [ "float", "bang" ],
					"patching_rect" : [ 470.0, 470.0, 368.0, 20.0 ],
					"text" : "buffer~ A_A5_grsh_mf1_norm1_-49 A_A5_grsh_mf1_norm1_-49.aif"
				}

			}
, 			{
				"box" : 				{
					"fontname" : "Helvetica Neue",
					"fontsize" : 12.0,
					"id" : "obj-25",
					"maxclass" : "newobj",
					"numinlets" : 1,
					"numoutlets" : 2,
					"outlettype" : [ "float", "bang" ],
					"patching_rect" : [ 490.0, 490.0, 368.0, 20.0 ],
					"text" : "buffer~ A_A6_grsh_mf1_norm1_-49 A_A6_grsh_mf1_norm1_-49.aif"
				}

			}
, 			{
				"box" : 				{
					"fontname" : "Helvetica Neue",
					"fontsize" : 12.0,
					"id" : "obj-26",
					"maxclass" : "newobj",
					"numinlets" : 1,
					"numoutlets" : 2,
					"outlettype" : [ "float", "bang" ],
					"patching_rect" : [ 510.0, 510.0, 368.0, 20.0 ],
					"text" : "buffer~ A_A7_grsh_mf1_norm1_-49 A_A7_grsh_mf1_norm1_-49.aif"
				}

			}
, 			{
				"box" : 				{
					"fontname" : "Helvetica Neue",
					"fontsize" : 12.0,
					"id" : "obj-27",
					"maxclass" : "newobj",
					"numinlets" : 1,
					"numoutlets" : 2,
					"outlettype" : [ "float", "bang" ],
					"patching_rect" : [ 530.0, 530.0, 316.0, 20.0 ],
					"text" : "buffer~ Bf5_grlg_mf1_norm-49 Bf5_grlg_mf1_norm-49.aif"
				}

			}
, 			{
				"box" : 				{
					"fontname" : "Helvetica Neue",
					"fontsize" : 12.0,
					"id" : "obj-28",
					"maxclass" : "newobj",
					"numinlets" : 1,
					"numoutlets" : 2,
					"outlettype" : [ "float", "bang" ],
					"patching_rect" : [ 550.0, 50.0, 330.0, 20.0 ],
					"text" : "buffer~ Bf5_orlg_mf1_norm1-49 Bf5_orlg_mf1_norm1-49.aif"
				}

			}
, 			{
				"box" : 				{
					"fontname" : "Helvetica Neue",
					"fontsize" : 12.0,
					"id" : "obj-29",
					"maxclass" : "newobj",
					"numinlets" : 1,
					"numoutlets" : 2,
					"outlettype" : [ "float", "bang" ],
					"patching_rect" : [ 570.0, 70.0, 274.0, 20.0 ],
					"text" : "buffer~ C1_grlg_mf1_norm C1_grlg_mf1_norm.aif"
				}

			}
, 			{
				"box" : 				{
					"fontname" : "Helvetica Neue",
					"fontsize" : 12.0,
					"id" : "obj-30",
					"maxclass" : "newobj",
					"numinlets" : 1,
					"numoutlets" : 2,
					"outlettype" : [ "float", "bang" ],
					"patching_rect" : [ 590.0, 90.0, 294.0, 20.0 ],
					"text" : "buffer~ C1_grsh_mf1_norm1 C1_grsh_mf1_norm1.aif"
				}

			}
, 			{
				"box" : 				{
					"fontname" : "Helvetica Neue",
					"fontsize" : 12.0,
					"id" : "obj-31",
					"maxclass" : "newobj",
					"numinlets" : 1,
					"numoutlets" : 2,
					"outlettype" : [ "float", "bang" ],
					"patching_rect" : [ 610.0, 110.0, 288.0, 20.0 ],
					"text" : "buffer~ C1_orlg_mf1_norm1 C1_orlg_mf1_norm1.aif"
				}

			}
, 			{
				"box" : 				{
					"fontname" : "Helvetica Neue",
					"fontsize" : 12.0,
					"id" : "obj-32",
					"maxclass" : "newobj",
					"numinlets" : 1,
					"numoutlets" : 2,
					"outlettype" : [ "float", "bang" ],
					"patching_rect" : [ 630.0, 130.0, 294.0, 20.0 ],
					"text" : "buffer~ C1_orsh_mf1_norm1 C1_orsh_mf1_norm1.aif"
				}

			}
, 			{
				"box" : 				{
					"fontname" : "Helvetica Neue",
					"fontsize" : 12.0,
					"id" : "obj-33",
					"maxclass" : "newobj",
					"numinlets" : 1,
					"numoutlets" : 2,
					"outlettype" : [ "float", "bang" ],
					"patching_rect" : [ 650.0, 150.0, 274.0, 20.0 ],
					"text" : "buffer~ C3_grlg_mf1_norm C3_grlg_mf1_norm.aif"
				}

			}
, 			{
				"box" : 				{
					"fontname" : "Helvetica Neue",
					"fontsize" : 12.0,
					"id" : "obj-34",
					"maxclass" : "newobj",
					"numinlets" : 1,
					"numoutlets" : 2,
					"outlettype" : [ "float", "bang" ],
					"patching_rect" : [ 670.0, 170.0, 294.0, 20.0 ],
					"text" : "buffer~ C3_grsh_mf1_norm1 C3_grsh_mf1_norm1.aif"
				}

			}
, 			{
				"box" : 				{
					"fontname" : "Helvetica Neue",
					"fontsize" : 12.0,
					"id" : "obj-35",
					"maxclass" : "newobj",
					"numinlets" : 1,
					"numoutlets" : 2,
					"outlettype" : [ "float", "bang" ],
					"patching_rect" : [ 690.0, 190.0, 288.0, 20.0 ],
					"text" : "buffer~ C3_orlg_mf1_norm1 C3_orlg_mf1_norm1.aif"
				}

			}
, 			{
				"box" : 				{
					"fontname" : "Helvetica Neue",
					"fontsize" : 12.0,
					"id" : "obj-36",
					"maxclass" : "newobj",
					"numinlets" : 1,
					"numoutlets" : 2,
					"outlettype" : [ "float", "bang" ],
					"patching_rect" : [ 710.0, 210.0, 294.0, 20.0 ],
					"text" : "buffer~ C3_orsh_mf1_norm1 C3_orsh_mf1_norm1.aif"
				}

			}
, 			{
				"box" : 				{
					"fontname" : "Helvetica Neue",
					"fontsize" : 12.0,
					"id" : "obj-37",
					"maxclass" : "newobj",
					"numinlets" : 1,
					"numoutlets" : 2,
					"outlettype" : [ "float", "bang" ],
					"patching_rect" : [ 730.0, 230.0, 294.0, 20.0 ],
					"text" : "buffer~ C4_grsh_mf1_norm1 C4_grsh_mf1_norm1.aif"
				}

			}
, 			{
				"box" : 				{
					"fontname" : "Helvetica Neue",
					"fontsize" : 12.0,
					"id" : "obj-38",
					"maxclass" : "newobj",
					"numinlets" : 1,
					"numoutlets" : 2,
					"outlettype" : [ "float", "bang" ],
					"patching_rect" : [ 750.0, 250.0, 294.0, 20.0 ],
					"text" : "buffer~ C4_orsh_mf1_norm1 C4_orsh_mf1_norm1.aif"
				}

			}
, 			{
				"box" : 				{
					"fontname" : "Helvetica Neue",
					"fontsize" : 12.0,
					"id" : "obj-39",
					"maxclass" : "newobj",
					"numinlets" : 1,
					"numoutlets" : 2,
					"outlettype" : [ "float", "bang" ],
					"patching_rect" : [ 770.0, 270.0, 294.0, 20.0 ],
					"text" : "buffer~ C5_grsh_mf1_norm1 C5_grsh_mf1_norm1.aif"
				}

			}
, 			{
				"box" : 				{
					"fontname" : "Helvetica Neue",
					"fontsize" : 12.0,
					"id" : "obj-40",
					"maxclass" : "newobj",
					"numinlets" : 1,
					"numoutlets" : 2,
					"outlettype" : [ "float", "bang" ],
					"patching_rect" : [ 790.0, 290.0, 294.0, 20.0 ],
					"text" : "buffer~ C5_orsh_mf1_norm1 C5_orsh_mf1_norm1.aif"
				}

			}
, 			{
				"box" : 				{
					"fontname" : "Helvetica Neue",
					"fontsize" : 12.0,
					"id" : "obj-41",
					"maxclass" : "newobj",
					"numinlets" : 1,
					"numoutlets" : 2,
					"outlettype" : [ "float", "bang" ],
					"patching_rect" : [ 810.0, 310.0, 310.0, 20.0 ],
					"text" : "buffer~ C6_grlg_mf1_norm-49 C6_grlg_mf1_norm-49.aif"
				}

			}
, 			{
				"box" : 				{
					"fontname" : "Helvetica Neue",
					"fontsize" : 12.0,
					"id" : "obj-42",
					"maxclass" : "newobj",
					"numinlets" : 1,
					"numoutlets" : 2,
					"outlettype" : [ "float", "bang" ],
					"patching_rect" : [ 830.0, 330.0, 324.0, 20.0 ],
					"text" : "buffer~ C6_orlg_mf1_norm1-49 C6_orlg_mf1_norm1-49.aif"
				}

			}
, 			{
				"box" : 				{
					"fontname" : "Helvetica Neue",
					"fontsize" : 12.0,
					"id" : "obj-43",
					"maxclass" : "newobj",
					"numinlets" : 1,
					"numoutlets" : 2,
					"outlettype" : [ "float", "bang" ],
					"patching_rect" : [ 850.0, 350.0, 294.0, 20.0 ],
					"text" : "buffer~ C7_grsh_mf1_norm1 C7_grsh_mf1_norm1.aif"
				}

			}
, 			{
				"box" : 				{
					"fontname" : "Helvetica Neue",
					"fontsize" : 12.0,
					"id" : "obj-44",
					"maxclass" : "newobj",
					"numinlets" : 1,
					"numoutlets" : 2,
					"outlettype" : [ "float", "bang" ],
					"patching_rect" : [ 870.0, 370.0, 342.0, 20.0 ],
					"text" : "buffer~ C7_grsh_mf1_norm1_-49 C7_grsh_mf1_norm1_-49.aif"
				}

			}
, 			{
				"box" : 				{
					"fontname" : "Helvetica Neue",
					"fontsize" : 12.0,
					"id" : "obj-45",
					"maxclass" : "newobj",
					"numinlets" : 1,
					"numoutlets" : 2,
					"outlettype" : [ "float", "bang" ],
					"patching_rect" : [ 890.0, 390.0, 294.0, 20.0 ],
					"text" : "buffer~ C7_orsh_mf1_norm1 C7_orsh_mf1_norm1.aif"
				}

			}
, 			{
				"box" : 				{
					"fontname" : "Helvetica Neue",
					"fontsize" : 12.0,
					"id" : "obj-46",
					"maxclass" : "newobj",
					"numinlets" : 1,
					"numoutlets" : 2,
					"outlettype" : [ "float", "bang" ],
					"patching_rect" : [ 910.0, 410.0, 342.0, 20.0 ],
					"text" : "buffer~ C7_orsh_mf1_norm1_-49 C7_orsh_mf1_norm1_-49.aif"
				}

			}
, 			{
				"box" : 				{
					"fontname" : "Helvetica Neue",
					"fontsize" : 12.0,
					"id" : "obj-47",
					"maxclass" : "newobj",
					"numinlets" : 1,
					"numoutlets" : 2,
					"outlettype" : [ "float", "bang" ],
					"patching_rect" : [ 930.0, 430.0, 294.0, 20.0 ],
					"text" : "buffer~ C8_grsh_mf1_norm1 C8_grsh_mf1_norm1.aif"
				}

			}
, 			{
				"box" : 				{
					"fontname" : "Helvetica Neue",
					"fontsize" : 12.0,
					"id" : "obj-48",
					"maxclass" : "newobj",
					"numinlets" : 1,
					"numoutlets" : 2,
					"outlettype" : [ "float", "bang" ],
					"patching_rect" : [ 950.0, 450.0, 342.0, 20.0 ],
					"text" : "buffer~ C8_grsh_mf1_norm1_-49 C8_grsh_mf1_norm1_-49.aif"
				}

			}
, 			{
				"box" : 				{
					"fontname" : "Helvetica Neue",
					"fontsize" : 12.0,
					"id" : "obj-49",
					"maxclass" : "newobj",
					"numinlets" : 1,
					"numoutlets" : 2,
					"outlettype" : [ "float", "bang" ],
					"patching_rect" : [ 970.0, 470.0, 294.0, 20.0 ],
					"text" : "buffer~ C8_orsh_mf1_norm1 C8_orsh_mf1_norm1.aif"
				}

			}
, 			{
				"box" : 				{
					"fontname" : "Helvetica Neue",
					"fontsize" : 12.0,
					"id" : "obj-50",
					"maxclass" : "newobj",
					"numinlets" : 1,
					"numoutlets" : 2,
					"outlettype" : [ "float", "bang" ],
					"patching_rect" : [ 990.0, 490.0, 342.0, 20.0 ],
					"text" : "buffer~ C8_orsh_mf1_norm1_-49 C8_orsh_mf1_norm1_-49.aif"
				}

			}
, 			{
				"box" : 				{
					"fontname" : "Helvetica Neue",
					"fontsize" : 12.0,
					"id" : "obj-51",
					"maxclass" : "newobj",
					"numinlets" : 1,
					"numoutlets" : 2,
					"outlettype" : [ "float", "bang" ],
					"patching_rect" : [ 1010.0, 510.0, 330.0, 20.0 ],
					"text" : "buffer~ D1_grsh_mf1_norm1-31 D1_grsh_mf1_norm1-31.aif"
				}

			}
, 			{
				"box" : 				{
					"fontname" : "Helvetica Neue",
					"fontsize" : 12.0,
					"id" : "obj-52",
					"linecount" : 5,
					"maxclass" : "newobj",
					"numinlets" : 1,
					"numoutlets" : 2,
					"outlettype" : [ "float", "bang" ],
					"patching_rect" : [ 1030.0, 530.0, 100.0, 0.0 ],
					"text" : "buffer~ D5_grlg_mf1_norm-31 D5_grlg_mf1_norm-31.aif"
				}

			}
, 			{
				"box" : 				{
					"fontname" : "Helvetica Neue",
					"fontsize" : 12.0,
					"id" : "obj-53",
					"linecount" : 5,
					"maxclass" : "newobj",
					"numinlets" : 1,
					"numoutlets" : 2,
					"outlettype" : [ "float", "bang" ],
					"patching_rect" : [ 1050.0, 50.0, 100.0, 0.0 ],
					"text" : "buffer~ D5_orlg_mf2_norm1-31 D5_orlg_mf2_norm1-31.aif"
				}

			}
, 			{
				"box" : 				{
					"fontname" : "Helvetica Neue",
					"fontsize" : 12.0,
					"id" : "obj-54",
					"linecount" : 5,
					"maxclass" : "newobj",
					"numinlets" : 1,
					"numoutlets" : 2,
					"outlettype" : [ "float", "bang" ],
					"patching_rect" : [ 1070.0, 70.0, 100.0, 0.0 ],
					"text" : "buffer~ D__Eb1_orsh_mf1_norm1_-31 D__Eb1_orsh_mf1_norm1_-31.aif"
				}

			}
, 			{
				"box" : 				{
					"fontname" : "Helvetica Neue",
					"fontsize" : 12.0,
					"id" : "obj-55",
					"linecount" : 5,
					"maxclass" : "newobj",
					"numinlets" : 1,
					"numoutlets" : 2,
					"outlettype" : [ "float", "bang" ],
					"patching_rect" : [ 1090.0, 90.0, 100.0, 0.0 ],
					"text" : "buffer~ D__Eb4_grsh_mf1_norm1_-31 D__Eb4_grsh_mf1_norm1_-31.aif"
				}

			}
, 			{
				"box" : 				{
					"fontname" : "Helvetica Neue",
					"fontsize" : 12.0,
					"id" : "obj-56",
					"linecount" : 5,
					"maxclass" : "newobj",
					"numinlets" : 1,
					"numoutlets" : 2,
					"outlettype" : [ "float", "bang" ],
					"patching_rect" : [ 1110.0, 110.0, 100.0, 0.0 ],
					"text" : "buffer~ D__Eb4_orsh_mf1_norm1_-31 D__Eb4_orsh_mf1_norm1_-31.aif"
				}

			}
, 			{
				"box" : 				{
					"fontname" : "Helvetica Neue",
					"fontsize" : 12.0,
					"id" : "obj-57",
					"linecount" : 5,
					"maxclass" : "newobj",
					"numinlets" : 1,
					"numoutlets" : 2,
					"outlettype" : [ "float", "bang" ],
					"patching_rect" : [ 1130.0, 130.0, 100.0, 0.0 ],
					"text" : "buffer~ Db1_grlg_mf1_norm-31 Db1_grlg_mf1_norm-31.aif"
				}

			}
, 			{
				"box" : 				{
					"fontname" : "Helvetica Neue",
					"fontsize" : 12.0,
					"id" : "obj-58",
					"linecount" : 5,
					"maxclass" : "newobj",
					"numinlets" : 1,
					"numoutlets" : 2,
					"outlettype" : [ "float", "bang" ],
					"patching_rect" : [ 1150.0, 150.0, 100.0, 0.0 ],
					"text" : "buffer~ Db1_orlg_mf1_norm1-31 Db1_orlg_mf1_norm1-31.aif"
				}

			}
, 			{
				"box" : 				{
					"fontname" : "Helvetica Neue",
					"fontsize" : 12.0,
					"id" : "obj-59",
					"linecount" : 5,
					"maxclass" : "newobj",
					"numinlets" : 1,
					"numoutlets" : 2,
					"outlettype" : [ "float", "bang" ],
					"patching_rect" : [ 1170.0, 170.0, 100.0, 0.0 ],
					"text" : "buffer~ Db2_grsh_mf1_norm-31 Db2_grsh_mf1_norm-31.aif"
				}

			}
, 			{
				"box" : 				{
					"fontname" : "Helvetica Neue",
					"fontsize" : 12.0,
					"id" : "obj-60",
					"linecount" : 5,
					"maxclass" : "newobj",
					"numinlets" : 1,
					"numoutlets" : 2,
					"outlettype" : [ "float", "bang" ],
					"patching_rect" : [ 1190.0, 190.0, 100.0, 0.0 ],
					"text" : "buffer~ Db2_orsh_mf1_norm1-31 Db2_orsh_mf1_norm1-31.aif"
				}

			}
, 			{
				"box" : 				{
					"fontname" : "Helvetica Neue",
					"fontsize" : 12.0,
					"id" : "obj-61",
					"linecount" : 5,
					"maxclass" : "newobj",
					"numinlets" : 1,
					"numoutlets" : 2,
					"outlettype" : [ "float", "bang" ],
					"patching_rect" : [ 1210.0, 210.0, 100.0, 0.0 ],
					"text" : "buffer~ Db4_grlg_mf1_norm-31 Db4_grlg_mf1_norm-31.aif"
				}

			}
, 			{
				"box" : 				{
					"fontname" : "Helvetica Neue",
					"fontsize" : 12.0,
					"id" : "obj-62",
					"linecount" : 5,
					"maxclass" : "newobj",
					"numinlets" : 1,
					"numoutlets" : 2,
					"outlettype" : [ "float", "bang" ],
					"patching_rect" : [ 1230.0, 230.0, 100.0, 0.0 ],
					"text" : "buffer~ Db4_orlg_mf1_norm1-31 Db4_orlg_mf1_norm1-31.aif"
				}

			}
, 			{
				"box" : 				{
					"fontname" : "Helvetica Neue",
					"fontsize" : 12.0,
					"id" : "obj-63",
					"linecount" : 5,
					"maxclass" : "newobj",
					"numinlets" : 1,
					"numoutlets" : 2,
					"outlettype" : [ "float", "bang" ],
					"patching_rect" : [ 1250.0, 250.0, 100.0, 0.0 ],
					"text" : "buffer~ Db6_grsh_mf1_norm1-31 Db6_grsh_mf1_norm1-31.aif"
				}

			}
, 			{
				"box" : 				{
					"fontname" : "Helvetica Neue",
					"fontsize" : 12.0,
					"id" : "obj-64",
					"linecount" : 5,
					"maxclass" : "newobj",
					"numinlets" : 1,
					"numoutlets" : 2,
					"outlettype" : [ "float", "bang" ],
					"patching_rect" : [ 1270.0, 270.0, 100.0, 0.0 ],
					"text" : "buffer~ Db6_orsh_mf1_norm1-31 Db6_orsh_mf1_norm1-31.aif"
				}

			}
, 			{
				"box" : 				{
					"fontname" : "Helvetica Neue",
					"fontsize" : 12.0,
					"id" : "obj-65",
					"linecount" : 5,
					"maxclass" : "newobj",
					"numinlets" : 1,
					"numoutlets" : 2,
					"outlettype" : [ "float", "bang" ],
					"patching_rect" : [ 1290.0, 290.0, 100.0, 0.0 ],
					"text" : "buffer~ Db_C3_grsh_mf1_norm1_-31 Db_C3_grsh_mf1_norm1_-31.aif"
				}

			}
, 			{
				"box" : 				{
					"fontname" : "Helvetica Neue",
					"fontsize" : 12.0,
					"id" : "obj-66",
					"linecount" : 5,
					"maxclass" : "newobj",
					"numinlets" : 1,
					"numoutlets" : 2,
					"outlettype" : [ "float", "bang" ],
					"patching_rect" : [ 1310.0, 310.0, 100.0, 0.0 ],
					"text" : "buffer~ Db_C3_orsh_mf1_norm1_-31 Db_C3_orsh_mf1_norm1_-31.aif"
				}

			}
, 			{
				"box" : 				{
					"fontname" : "Helvetica Neue",
					"fontsize" : 12.0,
					"id" : "obj-67",
					"linecount" : 5,
					"maxclass" : "newobj",
					"numinlets" : 1,
					"numoutlets" : 2,
					"outlettype" : [ "float", "bang" ],
					"patching_rect" : [ 1330.0, 330.0, 100.0, 0.0 ],
					"text" : "buffer~ Db_C5_grsh_mf1_norm1_-31 Db_C5_grsh_mf1_norm1_-31.aif"
				}

			}
, 			{
				"box" : 				{
					"fontname" : "Helvetica Neue",
					"fontsize" : 12.0,
					"id" : "obj-68",
					"linecount" : 5,
					"maxclass" : "newobj",
					"numinlets" : 1,
					"numoutlets" : 2,
					"outlettype" : [ "float", "bang" ],
					"patching_rect" : [ 1350.0, 350.0, 100.0, 0.0 ],
					"text" : "buffer~ Db_C5_orsh_mf1_norm1_-31 Db_C5_orsh_mf1_norm1_-31.aif"
				}

			}
, 			{
				"box" : 				{
					"fontname" : "Helvetica Neue",
					"fontsize" : 12.0,
					"id" : "obj-69",
					"linecount" : 5,
					"maxclass" : "newobj",
					"numinlets" : 1,
					"numoutlets" : 2,
					"outlettype" : [ "float", "bang" ],
					"patching_rect" : [ 1370.0, 370.0, 100.0, 0.0 ],
					"text" : "buffer~ Db_C7_grsh_mf1_norm1_-31 Db_C7_grsh_mf1_norm1_-31.aif"
				}

			}
, 			{
				"box" : 				{
					"fontname" : "Helvetica Neue",
					"fontsize" : 12.0,
					"id" : "obj-70",
					"linecount" : 5,
					"maxclass" : "newobj",
					"numinlets" : 1,
					"numoutlets" : 2,
					"outlettype" : [ "float", "bang" ],
					"patching_rect" : [ 1390.0, 390.0, 100.0, 0.0 ],
					"text" : "buffer~ Db_C7_orsh_mf1_norm1_-31 Db_C7_orsh_mf1_norm1_-31.aif"
				}

			}
, 			{
				"box" : 				{
					"fontname" : "Helvetica Neue",
					"fontsize" : 12.0,
					"id" : "obj-71",
					"linecount" : 5,
					"maxclass" : "newobj",
					"numinlets" : 1,
					"numoutlets" : 2,
					"outlettype" : [ "float", "bang" ],
					"patching_rect" : [ 1410.0, 410.0, 100.0, 0.0 ],
					"text" : "buffer~ Eb1_grlg_mf1_norm Eb1_grlg_mf1_norm.aif"
				}

			}
, 			{
				"box" : 				{
					"fontname" : "Helvetica Neue",
					"fontsize" : 12.0,
					"id" : "obj-72",
					"linecount" : 5,
					"maxclass" : "newobj",
					"numinlets" : 1,
					"numoutlets" : 2,
					"outlettype" : [ "float", "bang" ],
					"patching_rect" : [ 1430.0, 430.0, 100.0, 0.0 ],
					"text" : "buffer~ Eb1_grsh_mf1_norm1 Eb1_grsh_mf1_norm1.aif"
				}

			}
, 			{
				"box" : 				{
					"fontname" : "Helvetica Neue",
					"fontsize" : 12.0,
					"id" : "obj-73",
					"linecount" : 5,
					"maxclass" : "newobj",
					"numinlets" : 1,
					"numoutlets" : 2,
					"outlettype" : [ "float", "bang" ],
					"patching_rect" : [ 1450.0, 450.0, 100.0, 0.0 ],
					"text" : "buffer~ Eb1_orlg_mf1_norm1 Eb1_orlg_mf1_norm1.aif"
				}

			}
, 			{
				"box" : 				{
					"fontname" : "Helvetica Neue",
					"fontsize" : 12.0,
					"id" : "obj-74",
					"linecount" : 5,
					"maxclass" : "newobj",
					"numinlets" : 1,
					"numoutlets" : 2,
					"outlettype" : [ "float", "bang" ],
					"patching_rect" : [ 1470.0, 470.0, 100.0, 0.0 ],
					"text" : "buffer~ Eb1_orsh_mf1_norm1 Eb1_orsh_mf1_norm1.aif"
				}

			}
, 			{
				"box" : 				{
					"fontname" : "Helvetica Neue",
					"fontsize" : 12.0,
					"id" : "obj-75",
					"linecount" : 5,
					"maxclass" : "newobj",
					"numinlets" : 1,
					"numoutlets" : 2,
					"outlettype" : [ "float", "bang" ],
					"patching_rect" : [ 1490.0, 490.0, 100.0, 0.0 ],
					"text" : "buffer~ Eb2_grlg_mf1_norm Eb2_grlg_mf1_norm.aif"
				}

			}
, 			{
				"box" : 				{
					"fontname" : "Helvetica Neue",
					"fontsize" : 12.0,
					"id" : "obj-76",
					"linecount" : 5,
					"maxclass" : "newobj",
					"numinlets" : 1,
					"numoutlets" : 2,
					"outlettype" : [ "float", "bang" ],
					"patching_rect" : [ 1510.0, 510.0, 100.0, 0.0 ],
					"text" : "buffer~ Eb2_grsh_mf1_norm1 Eb2_grsh_mf1_norm1.aif"
				}

			}
, 			{
				"box" : 				{
					"fontname" : "Helvetica Neue",
					"fontsize" : 12.0,
					"id" : "obj-77",
					"linecount" : 5,
					"maxclass" : "newobj",
					"numinlets" : 1,
					"numoutlets" : 2,
					"outlettype" : [ "float", "bang" ],
					"patching_rect" : [ 1530.0, 530.0, 100.0, 0.0 ],
					"text" : "buffer~ Eb2_orlg_mf1_norm1 Eb2_orlg_mf1_norm1.aif"
				}

			}
, 			{
				"box" : 				{
					"fontname" : "Helvetica Neue",
					"fontsize" : 12.0,
					"id" : "obj-78",
					"linecount" : 5,
					"maxclass" : "newobj",
					"numinlets" : 1,
					"numoutlets" : 2,
					"outlettype" : [ "float", "bang" ],
					"patching_rect" : [ 1550.0, 50.0, 100.0, 0.0 ],
					"text" : "buffer~ Eb2_orsh_mf2_norm1 Eb2_orsh_mf2_norm1.aif"
				}

			}
, 			{
				"box" : 				{
					"fontname" : "Helvetica Neue",
					"fontsize" : 12.0,
					"id" : "obj-79",
					"linecount" : 5,
					"maxclass" : "newobj",
					"numinlets" : 1,
					"numoutlets" : 2,
					"outlettype" : [ "float", "bang" ],
					"patching_rect" : [ 1570.0, 70.0, 100.0, 0.0 ],
					"text" : "buffer~ Eb3_grlg_mf1_norm Eb3_grlg_mf1_norm.aif"
				}

			}
, 			{
				"box" : 				{
					"fontname" : "Helvetica Neue",
					"fontsize" : 12.0,
					"id" : "obj-80",
					"linecount" : 5,
					"maxclass" : "newobj",
					"numinlets" : 1,
					"numoutlets" : 2,
					"outlettype" : [ "float", "bang" ],
					"patching_rect" : [ 1590.0, 90.0, 100.0, 0.0 ],
					"text" : "buffer~ Eb3_grsh_mf1_norm1 Eb3_grsh_mf1_norm1.aif"
				}

			}
, 			{
				"box" : 				{
					"fontname" : "Helvetica Neue",
					"fontsize" : 12.0,
					"id" : "obj-81",
					"linecount" : 5,
					"maxclass" : "newobj",
					"numinlets" : 1,
					"numoutlets" : 2,
					"outlettype" : [ "float", "bang" ],
					"patching_rect" : [ 1610.0, 110.0, 100.0, 0.0 ],
					"text" : "buffer~ Eb3_orlg_mf1_norm1 Eb3_orlg_mf1_norm1.aif"
				}

			}
, 			{
				"box" : 				{
					"fontname" : "Helvetica Neue",
					"fontsize" : 12.0,
					"id" : "obj-82",
					"linecount" : 5,
					"maxclass" : "newobj",
					"numinlets" : 1,
					"numoutlets" : 2,
					"outlettype" : [ "float", "bang" ],
					"patching_rect" : [ 1630.0, 130.0, 100.0, 0.0 ],
					"text" : "buffer~ Eb3_orsh_mf2_norm1 Eb3_orsh_mf2_norm1.aif"
				}

			}
, 			{
				"box" : 				{
					"fontname" : "Helvetica Neue",
					"fontsize" : 12.0,
					"id" : "obj-83",
					"linecount" : 5,
					"maxclass" : "newobj",
					"numinlets" : 1,
					"numoutlets" : 2,
					"outlettype" : [ "float", "bang" ],
					"patching_rect" : [ 1650.0, 150.0, 100.0, 0.0 ],
					"text" : "buffer~ Eb4_grlg_mf1_norm Eb4_grlg_mf1_norm.aif"
				}

			}
, 			{
				"box" : 				{
					"fontname" : "Helvetica Neue",
					"fontsize" : 12.0,
					"id" : "obj-84",
					"linecount" : 5,
					"maxclass" : "newobj",
					"numinlets" : 1,
					"numoutlets" : 2,
					"outlettype" : [ "float", "bang" ],
					"patching_rect" : [ 1670.0, 170.0, 100.0, 0.0 ],
					"text" : "buffer~ Eb4_grsh_mf1_norm1 Eb4_grsh_mf1_norm1.aif"
				}

			}
, 			{
				"box" : 				{
					"fontname" : "Helvetica Neue",
					"fontsize" : 12.0,
					"id" : "obj-85",
					"linecount" : 5,
					"maxclass" : "newobj",
					"numinlets" : 1,
					"numoutlets" : 2,
					"outlettype" : [ "float", "bang" ],
					"patching_rect" : [ 1690.0, 190.0, 100.0, 0.0 ],
					"text" : "buffer~ Eb4_orlg_mf1_norm1 Eb4_orlg_mf1_norm1.aif"
				}

			}
, 			{
				"box" : 				{
					"fontname" : "Helvetica Neue",
					"fontsize" : 12.0,
					"id" : "obj-86",
					"linecount" : 5,
					"maxclass" : "newobj",
					"numinlets" : 1,
					"numoutlets" : 2,
					"outlettype" : [ "float", "bang" ],
					"patching_rect" : [ 1710.0, 210.0, 100.0, 0.0 ],
					"text" : "buffer~ Eb4_orsh_mf1_norm1 Eb4_orsh_mf1_norm1.aif"
				}

			}
, 			{
				"box" : 				{
					"fontname" : "Helvetica Neue",
					"fontsize" : 12.0,
					"id" : "obj-87",
					"linecount" : 5,
					"maxclass" : "newobj",
					"numinlets" : 1,
					"numoutlets" : 2,
					"outlettype" : [ "float", "bang" ],
					"patching_rect" : [ 1730.0, 230.0, 100.0, 0.0 ],
					"text" : "buffer~ Eb5_grlg_mf1_norm Eb5_grlg_mf1_norm.aif"
				}

			}
, 			{
				"box" : 				{
					"fontname" : "Helvetica Neue",
					"fontsize" : 12.0,
					"id" : "obj-88",
					"linecount" : 5,
					"maxclass" : "newobj",
					"numinlets" : 1,
					"numoutlets" : 2,
					"outlettype" : [ "float", "bang" ],
					"patching_rect" : [ 1750.0, 250.0, 100.0, 0.0 ],
					"text" : "buffer~ Eb5_orlg_mf1_norm1 Eb5_orlg_mf1_norm1.aif"
				}

			}
, 			{
				"box" : 				{
					"fontname" : "Helvetica Neue",
					"fontsize" : 12.0,
					"id" : "obj-89",
					"linecount" : 5,
					"maxclass" : "newobj",
					"numinlets" : 1,
					"numoutlets" : 2,
					"outlettype" : [ "float", "bang" ],
					"patching_rect" : [ 1770.0, 270.0, 100.0, 0.0 ],
					"text" : "buffer~ Eb5_orsh_mf1_norm1 Eb5_orsh_mf1_norm1.aif"
				}

			}
, 			{
				"box" : 				{
					"fontname" : "Helvetica Neue",
					"fontsize" : 12.0,
					"id" : "obj-90",
					"linecount" : 5,
					"maxclass" : "newobj",
					"numinlets" : 1,
					"numoutlets" : 2,
					"outlettype" : [ "float", "bang" ],
					"patching_rect" : [ 1790.0, 290.0, 100.0, 0.0 ],
					"text" : "buffer~ Eb6_grlg_mf1_norm Eb6_grlg_mf1_norm.aif"
				}

			}
, 			{
				"box" : 				{
					"fontname" : "Helvetica Neue",
					"fontsize" : 12.0,
					"id" : "obj-91",
					"linecount" : 5,
					"maxclass" : "newobj",
					"numinlets" : 1,
					"numoutlets" : 2,
					"outlettype" : [ "float", "bang" ],
					"patching_rect" : [ 1810.0, 310.0, 100.0, 0.0 ],
					"text" : "buffer~ Eb6_grsh_mf1_norm1 Eb6_grsh_mf1_norm1.aif"
				}

			}
, 			{
				"box" : 				{
					"fontname" : "Helvetica Neue",
					"fontsize" : 12.0,
					"id" : "obj-92",
					"linecount" : 5,
					"maxclass" : "newobj",
					"numinlets" : 1,
					"numoutlets" : 2,
					"outlettype" : [ "float", "bang" ],
					"patching_rect" : [ 1830.0, 330.0, 100.0, 0.0 ],
					"text" : "buffer~ Eb6_orsh_mf1_norm1 Eb6_orsh_mf1_norm1.aif"
				}

			}
, 			{
				"box" : 				{
					"fontname" : "Helvetica Neue",
					"fontsize" : 12.0,
					"id" : "obj-93",
					"linecount" : 5,
					"maxclass" : "newobj",
					"numinlets" : 1,
					"numoutlets" : 2,
					"outlettype" : [ "float", "bang" ],
					"patching_rect" : [ 1850.0, 350.0, 100.0, 0.0 ],
					"text" : "buffer~ Eb7_grsh_mf1_norm1 Eb7_grsh_mf1_norm1.aif"
				}

			}
, 			{
				"box" : 				{
					"fontname" : "Helvetica Neue",
					"fontsize" : 12.0,
					"id" : "obj-94",
					"linecount" : 5,
					"maxclass" : "newobj",
					"numinlets" : 1,
					"numoutlets" : 2,
					"outlettype" : [ "float", "bang" ],
					"patching_rect" : [ 1870.0, 370.0, 100.0, 0.0 ],
					"text" : "buffer~ Eb7_orsh_mf1_norm1 Eb7_orsh_mf1_norm1.aif"
				}

			}
, 			{
				"box" : 				{
					"fontname" : "Helvetica Neue",
					"fontsize" : 12.0,
					"id" : "obj-95",
					"linecount" : 5,
					"maxclass" : "newobj",
					"numinlets" : 1,
					"numoutlets" : 2,
					"outlettype" : [ "float", "bang" ],
					"patching_rect" : [ 1890.0, 390.0, 100.0, 0.0 ],
					"text" : "buffer~ Fs1_grsh_mf1_norm1 Fs1_grsh_mf1_norm1.aif"
				}

			}
, 			{
				"box" : 				{
					"fontname" : "Helvetica Neue",
					"fontsize" : 12.0,
					"id" : "obj-96",
					"linecount" : 5,
					"maxclass" : "newobj",
					"numinlets" : 1,
					"numoutlets" : 2,
					"outlettype" : [ "float", "bang" ],
					"patching_rect" : [ 1910.0, 410.0, 100.0, 0.0 ],
					"text" : "buffer~ Fs1_orsh_mf1_norm1 Fs1_orsh_mf1_norm1.aif"
				}

			}
, 			{
				"box" : 				{
					"fontname" : "Helvetica Neue",
					"fontsize" : 12.0,
					"id" : "obj-97",
					"linecount" : 5,
					"maxclass" : "newobj",
					"numinlets" : 1,
					"numoutlets" : 2,
					"outlettype" : [ "float", "bang" ],
					"patching_rect" : [ 1930.0, 430.0, 100.0, 0.0 ],
					"text" : "buffer~ Fs1_orsh_mf2_norm1 Fs1_orsh_mf2_norm1.aif"
				}

			}
, 			{
				"box" : 				{
					"fontname" : "Helvetica Neue",
					"fontsize" : 12.0,
					"id" : "obj-98",
					"linecount" : 5,
					"maxclass" : "newobj",
					"numinlets" : 1,
					"numoutlets" : 2,
					"outlettype" : [ "float", "bang" ],
					"patching_rect" : [ 1950.0, 450.0, 100.0, 0.0 ],
					"text" : "buffer~ Fs2_grlg_mf1_norm Fs2_grlg_mf1_norm.aif"
				}

			}
, 			{
				"box" : 				{
					"fontname" : "Helvetica Neue",
					"fontsize" : 12.0,
					"id" : "obj-99",
					"linecount" : 5,
					"maxclass" : "newobj",
					"numinlets" : 1,
					"numoutlets" : 2,
					"outlettype" : [ "float", "bang" ],
					"patching_rect" : [ 1970.0, 470.0, 100.0, 0.0 ],
					"text" : "buffer~ Fs2_grsh_mf1_norm1 Fs2_grsh_mf1_norm1.aif"
				}

			}
, 			{
				"box" : 				{
					"fontname" : "Helvetica Neue",
					"fontsize" : 12.0,
					"id" : "obj-100",
					"linecount" : 5,
					"maxclass" : "newobj",
					"numinlets" : 1,
					"numoutlets" : 2,
					"outlettype" : [ "float", "bang" ],
					"patching_rect" : [ 1990.0, 490.0, 100.0, 0.0 ],
					"text" : "buffer~ Fs2_orlg_mf1_norm1 Fs2_orlg_mf1_norm1.aif"
				}

			}
, 			{
				"box" : 				{
					"fontname" : "Helvetica Neue",
					"fontsize" : 12.0,
					"id" : "obj-101",
					"linecount" : 5,
					"maxclass" : "newobj",
					"numinlets" : 1,
					"numoutlets" : 2,
					"outlettype" : [ "float", "bang" ],
					"patching_rect" : [ 2010.0, 510.0, 100.0, 0.0 ],
					"text" : "buffer~ Fs2_orsh_mf1_norm1 Fs2_orsh_mf1_norm1.aif"
				}

			}
, 			{
				"box" : 				{
					"fontname" : "Helvetica Neue",
					"fontsize" : 12.0,
					"id" : "obj-102",
					"linecount" : 5,
					"maxclass" : "newobj",
					"numinlets" : 1,
					"numoutlets" : 2,
					"outlettype" : [ "float", "bang" ],
					"patching_rect" : [ 2030.0, 530.0, 100.0, 0.0 ],
					"text" : "buffer~ Fs3_grsh_mf1_norm1 Fs3_grsh_mf1_norm1.aif"
				}

			}
, 			{
				"box" : 				{
					"fontname" : "Helvetica Neue",
					"fontsize" : 12.0,
					"id" : "obj-103",
					"linecount" : 5,
					"maxclass" : "newobj",
					"numinlets" : 1,
					"numoutlets" : 2,
					"outlettype" : [ "float", "bang" ],
					"patching_rect" : [ 2050.0, 50.0, 100.0, 0.0 ],
					"text" : "buffer~ Fs3_orsh_mf3_norm1 Fs3_orsh_mf3_norm1.aif"
				}

			}
, 			{
				"box" : 				{
					"fontname" : "Helvetica Neue",
					"fontsize" : 12.0,
					"id" : "obj-104",
					"linecount" : 5,
					"maxclass" : "newobj",
					"numinlets" : 1,
					"numoutlets" : 2,
					"outlettype" : [ "float", "bang" ],
					"patching_rect" : [ 2070.0, 70.0, 100.0, 0.0 ],
					"text" : "buffer~ Fs4_grsh_mf1_norm1 Fs4_grsh_mf1_norm1.aif"
				}

			}
, 			{
				"box" : 				{
					"fontname" : "Helvetica Neue",
					"fontsize" : 12.0,
					"id" : "obj-105",
					"linecount" : 5,
					"maxclass" : "newobj",
					"numinlets" : 1,
					"numoutlets" : 2,
					"outlettype" : [ "float", "bang" ],
					"patching_rect" : [ 2090.0, 90.0, 100.0, 0.0 ],
					"text" : "buffer~ Fs4_orsh_mf1_norm1 Fs4_orsh_mf1_norm1.aif"
				}

			}
, 			{
				"box" : 				{
					"fontname" : "Helvetica Neue",
					"fontsize" : 12.0,
					"id" : "obj-106",
					"linecount" : 5,
					"maxclass" : "newobj",
					"numinlets" : 1,
					"numoutlets" : 2,
					"outlettype" : [ "float", "bang" ],
					"patching_rect" : [ 2110.0, 110.0, 100.0, 0.0 ],
					"text" : "buffer~ Fs5_grlg_mf1_norm Fs5_grlg_mf1_norm.aif"
				}

			}
, 			{
				"box" : 				{
					"fontname" : "Helvetica Neue",
					"fontsize" : 12.0,
					"id" : "obj-107",
					"linecount" : 5,
					"maxclass" : "newobj",
					"numinlets" : 1,
					"numoutlets" : 2,
					"outlettype" : [ "float", "bang" ],
					"patching_rect" : [ 2130.0, 130.0, 100.0, 0.0 ],
					"text" : "buffer~ Fs5_grsh_mf1_norm1 Fs5_grsh_mf1_norm1.aif"
				}

			}
, 			{
				"box" : 				{
					"fontname" : "Helvetica Neue",
					"fontsize" : 12.0,
					"id" : "obj-108",
					"linecount" : 5,
					"maxclass" : "newobj",
					"numinlets" : 1,
					"numoutlets" : 2,
					"outlettype" : [ "float", "bang" ],
					"patching_rect" : [ 2150.0, 150.0, 100.0, 0.0 ],
					"text" : "buffer~ Fs5_orlg_mf1_norm1 Fs5_orlg_mf1_norm1.aif"
				}

			}
, 			{
				"box" : 				{
					"fontname" : "Helvetica Neue",
					"fontsize" : 12.0,
					"id" : "obj-109",
					"linecount" : 5,
					"maxclass" : "newobj",
					"numinlets" : 1,
					"numoutlets" : 2,
					"outlettype" : [ "float", "bang" ],
					"patching_rect" : [ 2170.0, 170.0, 100.0, 0.0 ],
					"text" : "buffer~ Fs5_orsh_mf1_norm1 Fs5_orsh_mf1_norm1.aif"
				}

			}
, 			{
				"box" : 				{
					"fontname" : "Helvetica Neue",
					"fontsize" : 12.0,
					"id" : "obj-110",
					"linecount" : 5,
					"maxclass" : "newobj",
					"numinlets" : 1,
					"numoutlets" : 2,
					"outlettype" : [ "float", "bang" ],
					"patching_rect" : [ 2190.0, 190.0, 100.0, 0.0 ],
					"text" : "buffer~ Fs6_grsh_mf1_norm1 Fs6_grsh_mf1_norm1.aif"
				}

			}
, 			{
				"box" : 				{
					"fontname" : "Helvetica Neue",
					"fontsize" : 12.0,
					"id" : "obj-111",
					"linecount" : 5,
					"maxclass" : "newobj",
					"numinlets" : 1,
					"numoutlets" : 2,
					"outlettype" : [ "float", "bang" ],
					"patching_rect" : [ 2210.0, 210.0, 100.0, 0.0 ],
					"text" : "buffer~ Fs6_orlg_mf1_norm1 Fs6_orlg_mf1_norm1.aif"
				}

			}
, 			{
				"box" : 				{
					"fontname" : "Helvetica Neue",
					"fontsize" : 12.0,
					"id" : "obj-112",
					"linecount" : 5,
					"maxclass" : "newobj",
					"numinlets" : 1,
					"numoutlets" : 2,
					"outlettype" : [ "float", "bang" ],
					"patching_rect" : [ 2230.0, 230.0, 100.0, 0.0 ],
					"text" : "buffer~ Fs6_orsh_mf1_norm1 Fs6_orsh_mf1_norm1.aif"
				}

			}
, 			{
				"box" : 				{
					"fontname" : "Helvetica Neue",
					"fontsize" : 12.0,
					"id" : "obj-113",
					"linecount" : 5,
					"maxclass" : "newobj",
					"numinlets" : 1,
					"numoutlets" : 2,
					"outlettype" : [ "float", "bang" ],
					"patching_rect" : [ 2250.0, 250.0, 100.0, 0.0 ],
					"text" : "buffer~ Fs7_grsh_mf1_norm1 Fs7_grsh_mf1_norm1.aif"
				}

			}
, 			{
				"box" : 				{
					"fontname" : "Helvetica Neue",
					"fontsize" : 12.0,
					"id" : "obj-114",
					"linecount" : 5,
					"maxclass" : "newobj",
					"numinlets" : 1,
					"numoutlets" : 2,
					"outlettype" : [ "float", "bang" ],
					"patching_rect" : [ 2270.0, 270.0, 100.0, 0.0 ],
					"text" : "buffer~ Fs7_orsh_mf1_norm1 Fs7_orsh_mf1_norm1.aif"
				}

			}
, 			{
				"box" : 				{
					"fontname" : "Helvetica Neue",
					"fontsize" : 12.0,
					"id" : "obj-115",
					"linecount" : 5,
					"maxclass" : "newobj",
					"numinlets" : 1,
					"numoutlets" : 2,
					"outlettype" : [ "float", "bang" ],
					"patching_rect" : [ 2290.0, 290.0, 100.0, 0.0 ],
					"text" : "buffer~ _A4_grlg_mf1_norm-49 _A4_grlg_mf1_norm-49.aif"
				}

			}
, 			{
				"box" : 				{
					"fontname" : "Helvetica Neue",
					"fontsize" : 12.0,
					"id" : "obj-116",
					"linecount" : 5,
					"maxclass" : "newobj",
					"numinlets" : 1,
					"numoutlets" : 2,
					"outlettype" : [ "float", "bang" ],
					"patching_rect" : [ 2310.0, 310.0, 100.0, 0.0 ],
					"text" : "buffer~ __A1_orsh_mf1_norm1_-49 __A1_orsh_mf1_norm1_-49.aif"
				}

			}
, 			{
				"box" : 				{
					"fontname" : "Helvetica Neue",
					"fontsize" : 12.0,
					"id" : "obj-117",
					"linecount" : 5,
					"maxclass" : "newobj",
					"numinlets" : 1,
					"numoutlets" : 2,
					"outlettype" : [ "float", "bang" ],
					"patching_rect" : [ 2330.0, 330.0, 100.0, 0.0 ],
					"text" : "buffer~ __A2_orsh_mf1_norm1_-49 __A2_orsh_mf1_norm1_-49.aif"
				}

			}
, 			{
				"box" : 				{
					"fontname" : "Helvetica Neue",
					"fontsize" : 12.0,
					"id" : "obj-118",
					"linecount" : 5,
					"maxclass" : "newobj",
					"numinlets" : 1,
					"numoutlets" : 2,
					"outlettype" : [ "float", "bang" ],
					"patching_rect" : [ 2350.0, 350.0, 100.0, 0.0 ],
					"text" : "buffer~ __A3_orsh_mf1_norm1_-49 __A3_orsh_mf1_norm1_-49.aif"
				}

			}
, 			{
				"box" : 				{
					"fontname" : "Helvetica Neue",
					"fontsize" : 12.0,
					"id" : "obj-119",
					"linecount" : 5,
					"maxclass" : "newobj",
					"numinlets" : 1,
					"numoutlets" : 2,
					"outlettype" : [ "float", "bang" ],
					"patching_rect" : [ 2370.0, 370.0, 100.0, 0.0 ],
					"text" : "buffer~ __A5_orsh_mf1_norm1_-49 __A5_orsh_mf1_norm1_-49.aif"
				}

			}
, 			{
				"box" : 				{
					"fontname" : "Helvetica Neue",
					"fontsize" : 12.0,
					"id" : "obj-120",
					"linecount" : 5,
					"maxclass" : "newobj",
					"numinlets" : 1,
					"numoutlets" : 2,
					"outlettype" : [ "float", "bang" ],
					"patching_rect" : [ 2390.0, 390.0, 100.0, 0.0 ],
					"text" : "buffer~ __A6_orsh_f1_norm1_-49 __A6_orsh_f1_norm1_-49.aif"
				}

			}
, 			{
				"box" : 				{
					"fontname" : "Helvetica Neue",
					"fontsize" : 12.0,
					"id" : "obj-121",
					"linecount" : 5,
					"maxclass" : "newobj",
					"numinlets" : 1,
					"numoutlets" : 2,
					"outlettype" : [ "float", "bang" ],
					"patching_rect" : [ 2410.0, 410.0, 100.0, 0.0 ],
					"text" : "buffer~ __A7_orsh_f1_norm1_-49 __A7_orsh_f1_norm1_-49.aif"
				}

			}
, 			{
				"box" : 				{
					"fontname" : "Helvetica Neue",
					"fontsize" : 12.0,
					"id" : "obj-122",
					"linecount" : 4,
					"maxclass" : "newobj",
					"numinlets" : 1,
					"numoutlets" : 2,
					"outlettype" : [ "float", "bang" ],
					"patching_rect" : [ 2430.0, 430.0, 100.0, 0.0 ],
					"text" : "buffer~ knock_2_norm1 knock_2_norm1.aif"
				}

			}
, 			{
				"box" : 				{
					"fontname" : "Helvetica Neue",
					"fontsize" : 12.0,
					"id" : "obj-123",
					"linecount" : 4,
					"maxclass" : "newobj",
					"numinlets" : 1,
					"numoutlets" : 2,
					"outlettype" : [ "float", "bang" ],
					"patching_rect" : [ 2450.0, 450.0, 100.0, 0.0 ],
					"text" : "buffer~ knock_3_norm1 knock_3_norm1.aif"
				}

			}
, 			{
				"box" : 				{
					"fontname" : "Helvetica Neue",
					"fontsize" : 12.0,
					"id" : "obj-124",
					"linecount" : 4,
					"maxclass" : "newobj",
					"numinlets" : 1,
					"numoutlets" : 2,
					"outlettype" : [ "float", "bang" ],
					"patching_rect" : [ 2470.0, 470.0, 100.0, 0.0 ],
					"text" : "buffer~ knock_4_norm1 knock_4_norm1.aif"
				}

			}
, 			{
				"box" : 				{
					"fontname" : "Helvetica Neue",
					"fontsize" : 12.0,
					"id" : "obj-125",
					"linecount" : 4,
					"maxclass" : "newobj",
					"numinlets" : 1,
					"numoutlets" : 2,
					"outlettype" : [ "float", "bang" ],
					"patching_rect" : [ 2490.0, 490.0, 100.0, 0.0 ],
					"text" : "buffer~ knock_5_norm1 knock_5_norm1.aif"
				}

			}
, 			{
				"box" : 				{
					"fontname" : "Helvetica Neue",
					"fontsize" : 12.0,
					"id" : "obj-126",
					"linecount" : 4,
					"maxclass" : "newobj",
					"numinlets" : 1,
					"numoutlets" : 2,
					"outlettype" : [ "float", "bang" ],
					"patching_rect" : [ 2510.0, 510.0, 100.0, 0.0 ],
					"text" : "buffer~ knock_7_norm1 knock_7_norm1.aif"
				}

			}
, 			{
				"box" : 				{
					"fontname" : "Helvetica Neue",
					"fontsize" : 12.0,
					"id" : "obj-127",
					"linecount" : 4,
					"maxclass" : "newobj",
					"numinlets" : 1,
					"numoutlets" : 2,
					"outlettype" : [ "float", "bang" ],
					"patching_rect" : [ 2530.0, 530.0, 100.0, 0.0 ],
					"text" : "buffer~ tape_a4_norm1 tape_a4_norm1.aif"
				}

			}
, 			{
				"box" : 				{
					"fontname" : "Helvetica Neue",
					"fontsize" : 12.0,
					"id" : "obj-128",
					"linecount" : 4,
					"maxclass" : "newobj",
					"numinlets" : 1,
					"numoutlets" : 2,
					"outlettype" : [ "float", "bang" ],
					"patching_rect" : [ 2550.0, 50.0, 100.0, 0.0 ],
					"text" : "buffer~ tape_b4_norm1 tape_b4_norm1.aif"
				}

			}
, 			{
				"box" : 				{
					"fontname" : "Helvetica Neue",
					"fontsize" : 12.0,
					"id" : "obj-129",
					"linecount" : 4,
					"maxclass" : "newobj",
					"numinlets" : 1,
					"numoutlets" : 2,
					"outlettype" : [ "float", "bang" ],
					"patching_rect" : [ 2570.0, 70.0, 100.0, 0.0 ],
					"text" : "buffer~ tape_c#5_norm1 tape_c#5_norm1.aif"
				}

			}
, 			{
				"box" : 				{
					"fontname" : "Helvetica Neue",
					"fontsize" : 12.0,
					"id" : "obj-130",
					"linecount" : 4,
					"maxclass" : "newobj",
					"numinlets" : 1,
					"numoutlets" : 2,
					"outlettype" : [ "float", "bang" ],
					"patching_rect" : [ 2590.0, 90.0, 100.0, 0.0 ],
					"text" : "buffer~ tape_c5_norm1 tape_c5_norm1.aif"
				}

			}
, 			{
				"box" : 				{
					"fontname" : "Helvetica Neue",
					"fontsize" : 12.0,
					"id" : "obj-131",
					"linecount" : 4,
					"maxclass" : "newobj",
					"numinlets" : 1,
					"numoutlets" : 2,
					"outlettype" : [ "float", "bang" ],
					"patching_rect" : [ 2610.0, 110.0, 100.0, 0.0 ],
					"text" : "buffer~ tape_d5_norm1 tape_d5_norm1.aif"
				}

			}
, 			{
				"box" : 				{
					"fontname" : "Helvetica Neue",
					"fontsize" : 12.0,
					"id" : "obj-132",
					"linecount" : 4,
					"maxclass" : "newobj",
					"numinlets" : 1,
					"numoutlets" : 2,
					"outlettype" : [ "float", "bang" ],
					"patching_rect" : [ 2630.0, 130.0, 100.0, 0.0 ],
					"text" : "buffer~ tape_e5_norm1 tape_e5_norm1.aif"
				}

			}
, 			{
				"box" : 				{
					"fontname" : "Helvetica Neue",
					"fontsize" : 12.0,
					"id" : "obj-133",
					"linecount" : 4,
					"maxclass" : "newobj",
					"numinlets" : 1,
					"numoutlets" : 2,
					"outlettype" : [ "float", "bang" ],
					"patching_rect" : [ 2650.0, 150.0, 100.0, 0.0 ],
					"text" : "buffer~ tape_g5_norm1 tape_g5_norm1.aif"
				}

			}
 ],
		"lines" : [ 			{
				"patchline" : 				{
					"destination" : [ "obj-2", 0 ],
					"disabled" : 0,
					"hidden" : 0,
					"source" : [ "obj-152", 0 ]
				}

			}
, 			{
				"patchline" : 				{
					"destination" : [ "obj-152", 0 ],
					"disabled" : 0,
					"hidden" : 0,
					"source" : [ "obj-350", 0 ]
				}

			}
 ]
	}

}
