{
	"patcher" : 	{
		"fileversion" : 1,
		"appversion" : 		{
			"major" : 6,
			"minor" : 1,
			"revision" : 6,
			"architecture" : "x86"
		}
,
		"rect" : [ 275.0, 243.0, 1013.0, 591.0 ],
		"bglocked" : 0,
		"openinpresentation" : 0,
		"default_fontsize" : 12.0,
		"default_fontface" : 0,
		"default_fontname" : "Helvetica Neue",
		"gridonopen" : 0,
		"gridsize" : [ 15.0, 15.0 ],
		"gridsnaponopen" : 0,
		"statusbarvisible" : 0,
		"toolbarvisible" : 1,
		"boxanimatetime" : 200,
		"imprint" : 0,
		"enablehscroll" : 1,
		"enablevscroll" : 1,
		"devicewidth" : 0.0,
		"description" : "",
		"digest" : "",
		"tags" : "",
		"boxes" : [ 			{
				"box" : 				{
					"id" : "obj-350",
					"maxclass" : "button",
					"numinlets" : 1,
					"numoutlets" : 1,
					"outlettype" : [ "bang" ],
					"patching_rect" : [ 85.0, 420.0, 20.0, 20.0 ]
				}

			}
, 			{
				"box" : 				{
					"fontname" : "Helvetica Neue",
					"fontsize" : 12.0,
					"id" : "obj-152",
					"maxclass" : "newobj",
					"numinlets" : 1,
					"numoutlets" : 1,
					"outlettype" : [ "" ],
					"patcher" : 					{
						"fileversion" : 1,
						"appversion" : 						{
							"major" : 6,
							"minor" : 1,
							"revision" : 6,
							"architecture" : "x86"
						}
,
						"rect" : [ 235.0, 175.0, 1036.0, 414.0 ],
						"bglocked" : 0,
						"openinpresentation" : 0,
						"default_fontsize" : 12.0,
						"default_fontface" : 0,
						"default_fontname" : "Helvetica Neue",
						"gridonopen" : 0,
						"gridsize" : [ 15.0, 15.0 ],
						"gridsnaponopen" : 0,
						"statusbarvisible" : 2,
						"toolbarvisible" : 1,
						"boxanimatetime" : 200,
						"imprint" : 0,
						"enablehscroll" : 1,
						"enablevscroll" : 1,
						"devicewidth" : 0.0,
						"description" : "",
						"digest" : "",
						"tags" : "",
						"boxes" : [ 							{
								"box" : 								{
									"fontname" : "Helvetica Neue",
									"fontsize" : 12.0,
									"id" : "obj-7",
									"linecount" : 16,
									"maxclass" : "message",
									"numinlets" : 2,
									"numoutlets" : 1,
									"outlettype" : [ "" ],
									"patching_rect" : [ 50.0, 75.0, 984.0, 228.0 ],
									"text" : "files 10_Bf3repeated 1_Eb4repeatedaif 2_Eb4repeated 3_A3repeated 4_Bb2repeated 5_E5repeated 6_A2repeated 7_F5repeated 8_Ab2repeated 9_Gs3repeated A1_deadmute_f1 A1_resmute_f1_rev A2_deadmute_f1 A2_deadmute_f1_rev A3_deadmute_f1 A3_deadmute_f1_rev A3_resmute_f1_rev A4_deadmute_f1 A4_deadmute_mf1_rev A4_harmonic1 A4_magnet A4_resmute_f1_rev A5_deadmute_f1 A5_deadmute_f1_rev A5_magnet A5_resmute_f1_rev A6_deadmute_f1 A6_resmute_f1_rev A7_deadmute_f1 Af3_harmonic1 B3_magnet B4_magent B5_magnet Bf3_harmonic1 Bf3_magnet Bf4_magnet Bf5_magnet C1_deadmute_f1 C1_deadmute_f1_rev C1_resmute_f1_rev C1_resmute_f1_reverse C2_deadmute_f1_rev C2_deadmute_f2 C2_resmute_f1_rev C3_deadmute_f1 C3_deadmute_f1_rev C4_deadmute_f1 C4_deadmute_f1_rev C4_magnet C4_resmute_f1_rev C5_deadmute_f1 C5_deadmute_f1_rev C5_magnet C5_resmute_f1_rev C6_deadmute_f1 C6_deadmute_f1_rev C6_magnet C6_resmute_f1_rev C7_resmute_f1_rev Cs4_magnet Cs5_harmonic1 Cs5_magnet Cs6_magnet D4_magnet D5_magnet D6_magnet E4_magnet E5_magnet E6_magnet Eb1_deadmute_f1 Eb1_resmute_f1_rev Eb2_deadmute_f1_rev Eb2_deadmute_f2 Eb2_resmute_f1_rev Eb3_deadmute_f1 Eb3_deadmute_f1_rev Eb4_deadmute_f1 Eb4_deadmute_f1_rev Eb4_resmute_f1_rev Eb5_deadmute_f1 Eb5_deadmute_f1_rev Eb5_resmute_f1_rev Eb6_deadmute_f1 Eb6_resmute_f1_rev Eb7_deadmute_f1 Ef3_harmonic1 Ef4_magnet Ef5_magnet Ef6_magnet F4_magnet F5_magnet F6_magnet Fs1_deadmute_f1 Fs1_resmute_f1_rev Fs2_deadmute_f1 Fs2_deadmute_f1_rev Fs3_deadmute_f1 Fs3_deadmute_f1_rev Fs3_resmute_f1_rev Fs4_deadmute_f1 Fs4_deadmute_f1_rev Fs4_magnet Fs4_resmute_f1_rev Fs5_deadmute_f1 Fs5_deadmute_f1_rev Fs5_magnet Fs5_resmute_f1_rev Fs6_deadmute_f1 Fs6_magnet Fs6_resmute_f1_rev G4_magnet G5_magnet Gs4_magnet Gs5_magnet caulk_A3 caulk_A5 caulk_C4 caulk_Cs6 caulk_Ds4 caulk_Fs4 caulk_Fs5 caulk_Gs3 clave_1 clave_2 clave_3 clave_4 clave_loud_low1 clave_loud_low2 clave_mid1 clave_soft_mid2 guitarslide_1 guitarslide_2 guitarslide_3 guitarslide_long guitarslide_loud guitarslide_tremelo knock_1 knock_2 knock_3 knock_4 knock_5 knock_6 knock_7 knock_8 pizz_improv1 pizz_improv2 pizz_improv3 pizz_improv4 pizz_improv5 scrub1_light scrub1_rough scrub2_light scrub2_rough scrub3_peghigh scrub3_peglow seagulls_1 seagulls_2 seagulls_3 seagulls_4 seagulls_5 seagulls_chromgliss superball_drag_pedal_rev superball_gliss_1 superball_gliss_2 superball_gliss_3"
								}

							}
, 							{
								"box" : 								{
									"comment" : "",
									"id" : "obj-150",
									"maxclass" : "inlet",
									"numinlets" : 0,
									"numoutlets" : 1,
									"outlettype" : [ "bang" ],
									"patching_rect" : [ 50.0, 40.0, 25.0, 25.0 ]
								}

							}
, 							{
								"box" : 								{
									"comment" : "",
									"id" : "obj-151",
									"maxclass" : "outlet",
									"numinlets" : 1,
									"numoutlets" : 0,
									"patching_rect" : [ 50.0, 330.0, 25.0, 25.0 ]
								}

							}
 ],
						"lines" : [ 							{
								"patchline" : 								{
									"destination" : [ "obj-7", 0 ],
									"disabled" : 0,
									"hidden" : 0,
									"source" : [ "obj-150", 0 ]
								}

							}
, 							{
								"patchline" : 								{
									"destination" : [ "obj-151", 0 ],
									"disabled" : 0,
									"hidden" : 0,
									"source" : [ "obj-7", 0 ]
								}

							}
 ]
					}
,
					"patching_rect" : [ 85.0, 450.0, 89.0, 20.0 ],
					"saved_object_attributes" : 					{
						"default_fontface" : 0,
						"default_fontname" : "Helvetica Neue",
						"default_fontsize" : 12.0,
						"description" : "",
						"digest" : "",
						"fontface" : 0,
						"fontname" : "Helvetica Neue",
						"fontsize" : 12.0,
						"globalpatchername" : "",
						"tags" : ""
					}
,
					"text" : "p makeBuffers"
				}

			}
, 			{
				"box" : 				{
					"fontname" : "Helvetica Neue",
					"fontsize" : 12.0,
					"id" : "obj-1",
					"maxclass" : "newobj",
					"numinlets" : 1,
					"numoutlets" : 2,
					"outlettype" : [ "float", "bang" ],
					"patching_rect" : [ 85.0, 390.0, 81.0, 20.0 ],
					"text" : "buffer~ blank"
				}

			}
, 			{
				"box" : 				{
					"fontname" : "Helvetica Neue",
					"fontsize" : 12.0,
					"id" : "obj-2",
					"maxclass" : "newobj",
					"numinlets" : 1,
					"numoutlets" : 1,
					"outlettype" : [ "" ],
					"patching_rect" : [ 85.0, 480.0, 102.0, 20.0 ],
					"saved_object_attributes" : 					{
						"filename" : "makeBuffers.js",
						"parameter_enable" : 0
					}
,
					"text" : "js makeBuffers.js"
				}

			}
, 			{
				"box" : 				{
					"fontname" : "Helvetica Neue",
					"fontsize" : 12.0,
					"id" : "obj-590",
					"maxclass" : "newobj",
					"numinlets" : 1,
					"numoutlets" : 2,
					"outlettype" : [ "float", "bang" ],
					"patching_rect" : [ 60.0, 50.0, 250.0, 20.0 ],
					"text" : "buffer~ 10_Bf3repeated 10_Bf3repeated.aif 2"
				}

			}
, 			{
				"box" : 				{
					"fontname" : "Helvetica Neue",
					"fontsize" : 12.0,
					"id" : "obj-591",
					"maxclass" : "newobj",
					"numinlets" : 1,
					"numoutlets" : 2,
					"outlettype" : [ "float", "bang" ],
					"patching_rect" : [ 72.0, 70.0, 268.0, 20.0 ],
					"text" : "buffer~ 1_Eb4repeatedaif 1_Eb4repeatedaif.aif 2"
				}

			}
, 			{
				"box" : 				{
					"fontname" : "Helvetica Neue",
					"fontsize" : 12.0,
					"id" : "obj-592",
					"maxclass" : "newobj",
					"numinlets" : 1,
					"numoutlets" : 2,
					"outlettype" : [ "float", "bang" ],
					"patching_rect" : [ 85.0, 90.0, 242.0, 20.0 ],
					"text" : "buffer~ 2_Eb4repeated 2_Eb4repeated.aif 2"
				}

			}
, 			{
				"box" : 				{
					"fontname" : "Helvetica Neue",
					"fontsize" : 12.0,
					"id" : "obj-593",
					"maxclass" : "newobj",
					"numinlets" : 1,
					"numoutlets" : 2,
					"outlettype" : [ "float", "bang" ],
					"patching_rect" : [ 110.0, 110.0, 230.0, 20.0 ],
					"text" : "buffer~ 3_A3repeated 3_A3repeated.aif 2"
				}

			}
, 			{
				"box" : 				{
					"fontname" : "Helvetica Neue",
					"fontsize" : 12.0,
					"id" : "obj-595",
					"maxclass" : "newobj",
					"numinlets" : 1,
					"numoutlets" : 2,
					"outlettype" : [ "float", "bang" ],
					"patching_rect" : [ 150.0, 150.0, 228.0, 20.0 ],
					"text" : "buffer~ 5_E5repeated 5_E5repeated.aif 2"
				}

			}
, 			{
				"box" : 				{
					"fontname" : "Helvetica Neue",
					"fontsize" : 12.0,
					"id" : "obj-597",
					"maxclass" : "newobj",
					"numinlets" : 1,
					"numoutlets" : 2,
					"outlettype" : [ "float", "bang" ],
					"patching_rect" : [ 190.0, 190.0, 228.0, 20.0 ],
					"text" : "buffer~ 7_F5repeated 7_F5repeated.aif 2"
				}

			}
, 			{
				"box" : 				{
					"fontname" : "Helvetica Neue",
					"fontsize" : 12.0,
					"id" : "obj-599",
					"maxclass" : "newobj",
					"numinlets" : 1,
					"numoutlets" : 2,
					"outlettype" : [ "float", "bang" ],
					"patching_rect" : [ 230.0, 230.0, 244.0, 20.0 ],
					"text" : "buffer~ 9_Gs3repeated 9_Gs3repeated.aif 2"
				}

			}
, 			{
				"box" : 				{
					"fontname" : "Helvetica Neue",
					"fontsize" : 12.0,
					"id" : "obj-600",
					"maxclass" : "newobj",
					"numinlets" : 1,
					"numoutlets" : 2,
					"outlettype" : [ "float", "bang" ],
					"patching_rect" : [ 250.0, 250.0, 262.0, 20.0 ],
					"text" : "buffer~ A1_deadmute_f1 A1_deadmute_f1.aif 2"
				}

			}
, 			{
				"box" : 				{
					"fontname" : "Helvetica Neue",
					"fontsize" : 12.0,
					"id" : "obj-601",
					"maxclass" : "newobj",
					"numinlets" : 1,
					"numoutlets" : 2,
					"outlettype" : [ "float", "bang" ],
					"patching_rect" : [ 270.0, 270.0, 284.0, 20.0 ],
					"text" : "buffer~ A1_resmute_f1_rev A1_resmute_f1_rev.aif 2"
				}

			}
, 			{
				"box" : 				{
					"fontname" : "Helvetica Neue",
					"fontsize" : 12.0,
					"id" : "obj-602",
					"maxclass" : "newobj",
					"numinlets" : 1,
					"numoutlets" : 2,
					"outlettype" : [ "float", "bang" ],
					"patching_rect" : [ 290.0, 290.0, 262.0, 20.0 ],
					"text" : "buffer~ A2_deadmute_f1 A2_deadmute_f1.aif 2"
				}

			}
, 			{
				"box" : 				{
					"fontname" : "Helvetica Neue",
					"fontsize" : 12.0,
					"id" : "obj-603",
					"maxclass" : "newobj",
					"numinlets" : 1,
					"numoutlets" : 2,
					"outlettype" : [ "float", "bang" ],
					"patching_rect" : [ 310.0, 310.0, 306.0, 20.0 ],
					"text" : "buffer~ A2_deadmute_f1_rev A2_deadmute_f1_rev.aif 2"
				}

			}
, 			{
				"box" : 				{
					"fontname" : "Helvetica Neue",
					"fontsize" : 12.0,
					"id" : "obj-604",
					"maxclass" : "newobj",
					"numinlets" : 1,
					"numoutlets" : 2,
					"outlettype" : [ "float", "bang" ],
					"patching_rect" : [ 330.0, 330.0, 262.0, 20.0 ],
					"text" : "buffer~ A3_deadmute_f1 A3_deadmute_f1.aif 2"
				}

			}
, 			{
				"box" : 				{
					"fontname" : "Helvetica Neue",
					"fontsize" : 12.0,
					"id" : "obj-605",
					"maxclass" : "newobj",
					"numinlets" : 1,
					"numoutlets" : 2,
					"outlettype" : [ "float", "bang" ],
					"patching_rect" : [ 350.0, 350.0, 306.0, 20.0 ],
					"text" : "buffer~ A3_deadmute_f1_rev A3_deadmute_f1_rev.aif 2"
				}

			}
, 			{
				"box" : 				{
					"fontname" : "Helvetica Neue",
					"fontsize" : 12.0,
					"id" : "obj-606",
					"maxclass" : "newobj",
					"numinlets" : 1,
					"numoutlets" : 2,
					"outlettype" : [ "float", "bang" ],
					"patching_rect" : [ 370.0, 370.0, 284.0, 20.0 ],
					"text" : "buffer~ A3_resmute_f1_rev A3_resmute_f1_rev.aif 2"
				}

			}
, 			{
				"box" : 				{
					"fontname" : "Helvetica Neue",
					"fontsize" : 12.0,
					"id" : "obj-607",
					"maxclass" : "newobj",
					"numinlets" : 1,
					"numoutlets" : 2,
					"outlettype" : [ "float", "bang" ],
					"patching_rect" : [ 390.0, 390.0, 262.0, 20.0 ],
					"text" : "buffer~ A4_deadmute_f1 A4_deadmute_f1.aif 2"
				}

			}
, 			{
				"box" : 				{
					"fontname" : "Helvetica Neue",
					"fontsize" : 12.0,
					"id" : "obj-608",
					"maxclass" : "newobj",
					"numinlets" : 1,
					"numoutlets" : 2,
					"outlettype" : [ "float", "bang" ],
					"patching_rect" : [ 410.0, 410.0, 326.0, 20.0 ],
					"text" : "buffer~ A4_deadmute_mf1_rev A4_deadmute_mf1_rev.aif 2"
				}

			}
, 			{
				"box" : 				{
					"fontname" : "Helvetica Neue",
					"fontsize" : 12.0,
					"id" : "obj-609",
					"maxclass" : "newobj",
					"numinlets" : 1,
					"numoutlets" : 2,
					"outlettype" : [ "float", "bang" ],
					"patching_rect" : [ 430.0, 430.0, 234.0, 20.0 ],
					"text" : "buffer~ A4_harmonic1 A4_harmonic1.aif 2"
				}

			}
, 			{
				"box" : 				{
					"fontname" : "Helvetica Neue",
					"fontsize" : 12.0,
					"id" : "obj-610",
					"maxclass" : "newobj",
					"numinlets" : 1,
					"numoutlets" : 2,
					"outlettype" : [ "float", "bang" ],
					"patching_rect" : [ 450.0, 450.0, 202.0, 20.0 ],
					"text" : "buffer~ A4_magnet A4_magnet.aif 2"
				}

			}
, 			{
				"box" : 				{
					"fontname" : "Helvetica Neue",
					"fontsize" : 12.0,
					"id" : "obj-611",
					"maxclass" : "newobj",
					"numinlets" : 1,
					"numoutlets" : 2,
					"outlettype" : [ "float", "bang" ],
					"patching_rect" : [ 470.0, 470.0, 284.0, 20.0 ],
					"text" : "buffer~ A4_resmute_f1_rev A4_resmute_f1_rev.aif 2"
				}

			}
, 			{
				"box" : 				{
					"fontname" : "Helvetica Neue",
					"fontsize" : 12.0,
					"id" : "obj-612",
					"maxclass" : "newobj",
					"numinlets" : 1,
					"numoutlets" : 2,
					"outlettype" : [ "float", "bang" ],
					"patching_rect" : [ 490.0, 490.0, 262.0, 20.0 ],
					"text" : "buffer~ A5_deadmute_f1 A5_deadmute_f1.aif 2"
				}

			}
, 			{
				"box" : 				{
					"fontname" : "Helvetica Neue",
					"fontsize" : 12.0,
					"id" : "obj-613",
					"maxclass" : "newobj",
					"numinlets" : 1,
					"numoutlets" : 2,
					"outlettype" : [ "float", "bang" ],
					"patching_rect" : [ 510.0, 510.0, 306.0, 20.0 ],
					"text" : "buffer~ A5_deadmute_f1_rev A5_deadmute_f1_rev.aif 2"
				}

			}
, 			{
				"box" : 				{
					"fontname" : "Helvetica Neue",
					"fontsize" : 12.0,
					"id" : "obj-614",
					"maxclass" : "newobj",
					"numinlets" : 1,
					"numoutlets" : 2,
					"outlettype" : [ "float", "bang" ],
					"patching_rect" : [ 530.0, 530.0, 202.0, 20.0 ],
					"text" : "buffer~ A5_magnet A5_magnet.aif 2"
				}

			}
, 			{
				"box" : 				{
					"fontname" : "Helvetica Neue",
					"fontsize" : 12.0,
					"id" : "obj-615",
					"maxclass" : "newobj",
					"numinlets" : 1,
					"numoutlets" : 2,
					"outlettype" : [ "float", "bang" ],
					"patching_rect" : [ 550.0, 50.0, 284.0, 20.0 ],
					"text" : "buffer~ A5_resmute_f1_rev A5_resmute_f1_rev.aif 2"
				}

			}
, 			{
				"box" : 				{
					"fontname" : "Helvetica Neue",
					"fontsize" : 12.0,
					"id" : "obj-616",
					"maxclass" : "newobj",
					"numinlets" : 1,
					"numoutlets" : 2,
					"outlettype" : [ "float", "bang" ],
					"patching_rect" : [ 570.0, 70.0, 262.0, 20.0 ],
					"text" : "buffer~ A6_deadmute_f1 A6_deadmute_f1.aif 2"
				}

			}
, 			{
				"box" : 				{
					"fontname" : "Helvetica Neue",
					"fontsize" : 12.0,
					"id" : "obj-617",
					"maxclass" : "newobj",
					"numinlets" : 1,
					"numoutlets" : 2,
					"outlettype" : [ "float", "bang" ],
					"patching_rect" : [ 590.0, 90.0, 284.0, 20.0 ],
					"text" : "buffer~ A6_resmute_f1_rev A6_resmute_f1_rev.aif 2"
				}

			}
, 			{
				"box" : 				{
					"fontname" : "Helvetica Neue",
					"fontsize" : 12.0,
					"id" : "obj-618",
					"maxclass" : "newobj",
					"numinlets" : 1,
					"numoutlets" : 2,
					"outlettype" : [ "float", "bang" ],
					"patching_rect" : [ 610.0, 110.0, 262.0, 20.0 ],
					"text" : "buffer~ A7_deadmute_f1 A7_deadmute_f1.aif 2"
				}

			}
, 			{
				"box" : 				{
					"fontname" : "Helvetica Neue",
					"fontsize" : 12.0,
					"id" : "obj-619",
					"maxclass" : "newobj",
					"numinlets" : 1,
					"numoutlets" : 2,
					"outlettype" : [ "float", "bang" ],
					"patching_rect" : [ 630.0, 130.0, 242.0, 20.0 ],
					"text" : "buffer~ Af3_harmonic1 Af3_harmonic1.aif 2"
				}

			}
, 			{
				"box" : 				{
					"fontname" : "Helvetica Neue",
					"fontsize" : 12.0,
					"id" : "obj-620",
					"maxclass" : "newobj",
					"numinlets" : 1,
					"numoutlets" : 2,
					"outlettype" : [ "float", "bang" ],
					"patching_rect" : [ 650.0, 150.0, 202.0, 20.0 ],
					"text" : "buffer~ B3_magnet B3_magnet.aif 2"
				}

			}
, 			{
				"box" : 				{
					"fontname" : "Helvetica Neue",
					"fontsize" : 12.0,
					"id" : "obj-621",
					"maxclass" : "newobj",
					"numinlets" : 1,
					"numoutlets" : 2,
					"outlettype" : [ "float", "bang" ],
					"patching_rect" : [ 670.0, 170.0, 202.0, 20.0 ],
					"text" : "buffer~ B4_magent B4_magent.aif 2"
				}

			}
, 			{
				"box" : 				{
					"fontname" : "Helvetica Neue",
					"fontsize" : 12.0,
					"id" : "obj-622",
					"maxclass" : "newobj",
					"numinlets" : 1,
					"numoutlets" : 2,
					"outlettype" : [ "float", "bang" ],
					"patching_rect" : [ 690.0, 190.0, 202.0, 20.0 ],
					"text" : "buffer~ B5_magnet B5_magnet.aif 2"
				}

			}
, 			{
				"box" : 				{
					"fontname" : "Helvetica Neue",
					"fontsize" : 12.0,
					"id" : "obj-623",
					"maxclass" : "newobj",
					"numinlets" : 1,
					"numoutlets" : 2,
					"outlettype" : [ "float", "bang" ],
					"patching_rect" : [ 710.0, 210.0, 242.0, 20.0 ],
					"text" : "buffer~ Bf3_harmonic1 Bf3_harmonic1.aif 2"
				}

			}
, 			{
				"box" : 				{
					"fontname" : "Helvetica Neue",
					"fontsize" : 12.0,
					"id" : "obj-624",
					"maxclass" : "newobj",
					"numinlets" : 1,
					"numoutlets" : 2,
					"outlettype" : [ "float", "bang" ],
					"patching_rect" : [ 730.0, 230.0, 210.0, 20.0 ],
					"text" : "buffer~ Bf3_magnet Bf3_magnet.aif 2"
				}

			}
, 			{
				"box" : 				{
					"fontname" : "Helvetica Neue",
					"fontsize" : 12.0,
					"id" : "obj-625",
					"maxclass" : "newobj",
					"numinlets" : 1,
					"numoutlets" : 2,
					"outlettype" : [ "float", "bang" ],
					"patching_rect" : [ 750.0, 250.0, 210.0, 20.0 ],
					"text" : "buffer~ Bf4_magnet Bf4_magnet.aif 2"
				}

			}
, 			{
				"box" : 				{
					"fontname" : "Helvetica Neue",
					"fontsize" : 12.0,
					"id" : "obj-626",
					"maxclass" : "newobj",
					"numinlets" : 1,
					"numoutlets" : 2,
					"outlettype" : [ "float", "bang" ],
					"patching_rect" : [ 770.0, 270.0, 210.0, 20.0 ],
					"text" : "buffer~ Bf5_magnet Bf5_magnet.aif 2"
				}

			}
, 			{
				"box" : 				{
					"fontname" : "Helvetica Neue",
					"fontsize" : 12.0,
					"id" : "obj-627",
					"maxclass" : "newobj",
					"numinlets" : 1,
					"numoutlets" : 2,
					"outlettype" : [ "float", "bang" ],
					"patching_rect" : [ 790.0, 290.0, 264.0, 20.0 ],
					"text" : "buffer~ C1_deadmute_f1 C1_deadmute_f1.aif 2"
				}

			}
, 			{
				"box" : 				{
					"fontname" : "Helvetica Neue",
					"fontsize" : 12.0,
					"id" : "obj-628",
					"maxclass" : "newobj",
					"numinlets" : 1,
					"numoutlets" : 2,
					"outlettype" : [ "float", "bang" ],
					"patching_rect" : [ 810.0, 310.0, 308.0, 20.0 ],
					"text" : "buffer~ C1_deadmute_f1_rev C1_deadmute_f1_rev.aif 2"
				}

			}
, 			{
				"box" : 				{
					"fontname" : "Helvetica Neue",
					"fontsize" : 12.0,
					"id" : "obj-629",
					"maxclass" : "newobj",
					"numinlets" : 1,
					"numoutlets" : 2,
					"outlettype" : [ "float", "bang" ],
					"patching_rect" : [ 830.0, 330.0, 286.0, 20.0 ],
					"text" : "buffer~ C1_resmute_f1_rev C1_resmute_f1_rev.aif 2"
				}

			}
, 			{
				"box" : 				{
					"fontname" : "Helvetica Neue",
					"fontsize" : 12.0,
					"id" : "obj-630",
					"maxclass" : "newobj",
					"numinlets" : 1,
					"numoutlets" : 2,
					"outlettype" : [ "float", "bang" ],
					"patching_rect" : [ 850.0, 350.0, 332.0, 20.0 ],
					"text" : "buffer~ C1_resmute_f1_reverse C1_resmute_f1_reverse.aif 2"
				}

			}
, 			{
				"box" : 				{
					"fontname" : "Helvetica Neue",
					"fontsize" : 12.0,
					"id" : "obj-631",
					"maxclass" : "newobj",
					"numinlets" : 1,
					"numoutlets" : 2,
					"outlettype" : [ "float", "bang" ],
					"patching_rect" : [ 870.0, 370.0, 308.0, 20.0 ],
					"text" : "buffer~ C2_deadmute_f1_rev C2_deadmute_f1_rev.aif 2"
				}

			}
, 			{
				"box" : 				{
					"fontname" : "Helvetica Neue",
					"fontsize" : 12.0,
					"id" : "obj-632",
					"maxclass" : "newobj",
					"numinlets" : 1,
					"numoutlets" : 2,
					"outlettype" : [ "float", "bang" ],
					"patching_rect" : [ 890.0, 390.0, 264.0, 20.0 ],
					"text" : "buffer~ C2_deadmute_f2 C2_deadmute_f2.aif 2"
				}

			}
, 			{
				"box" : 				{
					"fontname" : "Helvetica Neue",
					"fontsize" : 12.0,
					"id" : "obj-633",
					"maxclass" : "newobj",
					"numinlets" : 1,
					"numoutlets" : 2,
					"outlettype" : [ "float", "bang" ],
					"patching_rect" : [ 910.0, 410.0, 286.0, 20.0 ],
					"text" : "buffer~ C2_resmute_f1_rev C2_resmute_f1_rev.aif 2"
				}

			}
, 			{
				"box" : 				{
					"fontname" : "Helvetica Neue",
					"fontsize" : 12.0,
					"id" : "obj-634",
					"maxclass" : "newobj",
					"numinlets" : 1,
					"numoutlets" : 2,
					"outlettype" : [ "float", "bang" ],
					"patching_rect" : [ 930.0, 430.0, 264.0, 20.0 ],
					"text" : "buffer~ C3_deadmute_f1 C3_deadmute_f1.aif 2"
				}

			}
, 			{
				"box" : 				{
					"fontname" : "Helvetica Neue",
					"fontsize" : 12.0,
					"id" : "obj-635",
					"maxclass" : "newobj",
					"numinlets" : 1,
					"numoutlets" : 2,
					"outlettype" : [ "float", "bang" ],
					"patching_rect" : [ 950.0, 450.0, 308.0, 20.0 ],
					"text" : "buffer~ C3_deadmute_f1_rev C3_deadmute_f1_rev.aif 2"
				}

			}
, 			{
				"box" : 				{
					"fontname" : "Helvetica Neue",
					"fontsize" : 12.0,
					"id" : "obj-636",
					"maxclass" : "newobj",
					"numinlets" : 1,
					"numoutlets" : 2,
					"outlettype" : [ "float", "bang" ],
					"patching_rect" : [ 970.0, 470.0, 264.0, 20.0 ],
					"text" : "buffer~ C4_deadmute_f1 C4_deadmute_f1.aif 2"
				}

			}
, 			{
				"box" : 				{
					"fontname" : "Helvetica Neue",
					"fontsize" : 12.0,
					"id" : "obj-637",
					"maxclass" : "newobj",
					"numinlets" : 1,
					"numoutlets" : 2,
					"outlettype" : [ "float", "bang" ],
					"patching_rect" : [ 990.0, 490.0, 308.0, 20.0 ],
					"text" : "buffer~ C4_deadmute_f1_rev C4_deadmute_f1_rev.aif 2"
				}

			}
, 			{
				"box" : 				{
					"fontname" : "Helvetica Neue",
					"fontsize" : 12.0,
					"id" : "obj-638",
					"maxclass" : "newobj",
					"numinlets" : 1,
					"numoutlets" : 2,
					"outlettype" : [ "float", "bang" ],
					"patching_rect" : [ 1010.0, 510.0, 204.0, 20.0 ],
					"text" : "buffer~ C4_magnet C4_magnet.aif 2"
				}

			}
, 			{
				"box" : 				{
					"fontname" : "Helvetica Neue",
					"fontsize" : 12.0,
					"id" : "obj-639",
					"maxclass" : "newobj",
					"numinlets" : 1,
					"numoutlets" : 2,
					"outlettype" : [ "float", "bang" ],
					"patching_rect" : [ 1030.0, 530.0, 286.0, 20.0 ],
					"text" : "buffer~ C4_resmute_f1_rev C4_resmute_f1_rev.aif 2"
				}

			}
, 			{
				"box" : 				{
					"fontname" : "Helvetica Neue",
					"fontsize" : 12.0,
					"id" : "obj-640",
					"maxclass" : "newobj",
					"numinlets" : 1,
					"numoutlets" : 2,
					"outlettype" : [ "float", "bang" ],
					"patching_rect" : [ 1050.0, 50.0, 264.0, 20.0 ],
					"text" : "buffer~ C5_deadmute_f1 C5_deadmute_f1.aif 2"
				}

			}
, 			{
				"box" : 				{
					"fontname" : "Helvetica Neue",
					"fontsize" : 12.0,
					"id" : "obj-641",
					"maxclass" : "newobj",
					"numinlets" : 1,
					"numoutlets" : 2,
					"outlettype" : [ "float", "bang" ],
					"patching_rect" : [ 1070.0, 70.0, 308.0, 20.0 ],
					"text" : "buffer~ C5_deadmute_f1_rev C5_deadmute_f1_rev.aif 2"
				}

			}
, 			{
				"box" : 				{
					"fontname" : "Helvetica Neue",
					"fontsize" : 12.0,
					"id" : "obj-642",
					"maxclass" : "newobj",
					"numinlets" : 1,
					"numoutlets" : 2,
					"outlettype" : [ "float", "bang" ],
					"patching_rect" : [ 1090.0, 90.0, 204.0, 20.0 ],
					"text" : "buffer~ C5_magnet C5_magnet.aif 2"
				}

			}
, 			{
				"box" : 				{
					"fontname" : "Helvetica Neue",
					"fontsize" : 12.0,
					"id" : "obj-643",
					"maxclass" : "newobj",
					"numinlets" : 1,
					"numoutlets" : 2,
					"outlettype" : [ "float", "bang" ],
					"patching_rect" : [ 1110.0, 110.0, 286.0, 20.0 ],
					"text" : "buffer~ C5_resmute_f1_rev C5_resmute_f1_rev.aif 2"
				}

			}
, 			{
				"box" : 				{
					"fontname" : "Helvetica Neue",
					"fontsize" : 12.0,
					"id" : "obj-644",
					"maxclass" : "newobj",
					"numinlets" : 1,
					"numoutlets" : 2,
					"outlettype" : [ "float", "bang" ],
					"patching_rect" : [ 1130.0, 130.0, 264.0, 20.0 ],
					"text" : "buffer~ C6_deadmute_f1 C6_deadmute_f1.aif 2"
				}

			}
, 			{
				"box" : 				{
					"fontname" : "Helvetica Neue",
					"fontsize" : 12.0,
					"id" : "obj-645",
					"maxclass" : "newobj",
					"numinlets" : 1,
					"numoutlets" : 2,
					"outlettype" : [ "float", "bang" ],
					"patching_rect" : [ 1150.0, 150.0, 308.0, 20.0 ],
					"text" : "buffer~ C6_deadmute_f1_rev C6_deadmute_f1_rev.aif 2"
				}

			}
, 			{
				"box" : 				{
					"fontname" : "Helvetica Neue",
					"fontsize" : 12.0,
					"id" : "obj-646",
					"maxclass" : "newobj",
					"numinlets" : 1,
					"numoutlets" : 2,
					"outlettype" : [ "float", "bang" ],
					"patching_rect" : [ 1170.0, 170.0, 204.0, 20.0 ],
					"text" : "buffer~ C6_magnet C6_magnet.aif 2"
				}

			}
, 			{
				"box" : 				{
					"fontname" : "Helvetica Neue",
					"fontsize" : 12.0,
					"id" : "obj-647",
					"maxclass" : "newobj",
					"numinlets" : 1,
					"numoutlets" : 2,
					"outlettype" : [ "float", "bang" ],
					"patching_rect" : [ 1190.0, 190.0, 286.0, 20.0 ],
					"text" : "buffer~ C6_resmute_f1_rev C6_resmute_f1_rev.aif 2"
				}

			}
, 			{
				"box" : 				{
					"fontname" : "Helvetica Neue",
					"fontsize" : 12.0,
					"id" : "obj-648",
					"maxclass" : "newobj",
					"numinlets" : 1,
					"numoutlets" : 2,
					"outlettype" : [ "float", "bang" ],
					"patching_rect" : [ 1210.0, 210.0, 286.0, 20.0 ],
					"text" : "buffer~ C7_resmute_f1_rev C7_resmute_f1_rev.aif 2"
				}

			}
, 			{
				"box" : 				{
					"fontname" : "Helvetica Neue",
					"fontsize" : 12.0,
					"id" : "obj-649",
					"maxclass" : "newobj",
					"numinlets" : 1,
					"numoutlets" : 2,
					"outlettype" : [ "float", "bang" ],
					"patching_rect" : [ 1230.0, 230.0, 216.0, 20.0 ],
					"text" : "buffer~ Cs4_magnet Cs4_magnet.aif 2"
				}

			}
, 			{
				"box" : 				{
					"fontname" : "Helvetica Neue",
					"fontsize" : 12.0,
					"id" : "obj-650",
					"maxclass" : "newobj",
					"numinlets" : 1,
					"numoutlets" : 2,
					"outlettype" : [ "float", "bang" ],
					"patching_rect" : [ 1250.0, 250.0, 248.0, 20.0 ],
					"text" : "buffer~ Cs5_harmonic1 Cs5_harmonic1.aif 2"
				}

			}
, 			{
				"box" : 				{
					"fontname" : "Helvetica Neue",
					"fontsize" : 12.0,
					"id" : "obj-651",
					"maxclass" : "newobj",
					"numinlets" : 1,
					"numoutlets" : 2,
					"outlettype" : [ "float", "bang" ],
					"patching_rect" : [ 1270.0, 270.0, 216.0, 20.0 ],
					"text" : "buffer~ Cs5_magnet Cs5_magnet.aif 2"
				}

			}
, 			{
				"box" : 				{
					"fontname" : "Helvetica Neue",
					"fontsize" : 12.0,
					"id" : "obj-652",
					"maxclass" : "newobj",
					"numinlets" : 1,
					"numoutlets" : 2,
					"outlettype" : [ "float", "bang" ],
					"patching_rect" : [ 1290.0, 290.0, 216.0, 20.0 ],
					"text" : "buffer~ Cs6_magnet Cs6_magnet.aif 2"
				}

			}
, 			{
				"box" : 				{
					"fontname" : "Helvetica Neue",
					"fontsize" : 12.0,
					"id" : "obj-653",
					"maxclass" : "newobj",
					"numinlets" : 1,
					"numoutlets" : 2,
					"outlettype" : [ "float", "bang" ],
					"patching_rect" : [ 1310.0, 310.0, 204.0, 20.0 ],
					"text" : "buffer~ D4_magnet D4_magnet.aif 2"
				}

			}
, 			{
				"box" : 				{
					"fontname" : "Helvetica Neue",
					"fontsize" : 12.0,
					"id" : "obj-654",
					"maxclass" : "newobj",
					"numinlets" : 1,
					"numoutlets" : 2,
					"outlettype" : [ "float", "bang" ],
					"patching_rect" : [ 1330.0, 330.0, 204.0, 20.0 ],
					"text" : "buffer~ D5_magnet D5_magnet.aif 2"
				}

			}
, 			{
				"box" : 				{
					"fontname" : "Helvetica Neue",
					"fontsize" : 12.0,
					"id" : "obj-655",
					"maxclass" : "newobj",
					"numinlets" : 1,
					"numoutlets" : 2,
					"outlettype" : [ "float", "bang" ],
					"patching_rect" : [ 1350.0, 350.0, 204.0, 20.0 ],
					"text" : "buffer~ D6_magnet D6_magnet.aif 2"
				}

			}
, 			{
				"box" : 				{
					"fontname" : "Helvetica Neue",
					"fontsize" : 12.0,
					"id" : "obj-656",
					"maxclass" : "newobj",
					"numinlets" : 1,
					"numoutlets" : 2,
					"outlettype" : [ "float", "bang" ],
					"patching_rect" : [ 1370.0, 370.0, 200.0, 20.0 ],
					"text" : "buffer~ E4_magnet E4_magnet.aif 2"
				}

			}
, 			{
				"box" : 				{
					"fontname" : "Helvetica Neue",
					"fontsize" : 12.0,
					"id" : "obj-657",
					"maxclass" : "newobj",
					"numinlets" : 1,
					"numoutlets" : 2,
					"outlettype" : [ "float", "bang" ],
					"patching_rect" : [ 1390.0, 390.0, 200.0, 20.0 ],
					"text" : "buffer~ E5_magnet E5_magnet.aif 2"
				}

			}
, 			{
				"box" : 				{
					"fontname" : "Helvetica Neue",
					"fontsize" : 12.0,
					"id" : "obj-658",
					"maxclass" : "newobj",
					"numinlets" : 1,
					"numoutlets" : 2,
					"outlettype" : [ "float", "bang" ],
					"patching_rect" : [ 1410.0, 410.0, 200.0, 20.0 ],
					"text" : "buffer~ E6_magnet E6_magnet.aif 2"
				}

			}
, 			{
				"box" : 				{
					"fontname" : "Helvetica Neue",
					"fontsize" : 12.0,
					"id" : "obj-659",
					"maxclass" : "newobj",
					"numinlets" : 1,
					"numoutlets" : 2,
					"outlettype" : [ "float", "bang" ],
					"patching_rect" : [ 1430.0, 430.0, 276.0, 20.0 ],
					"text" : "buffer~ Eb1_deadmute_f1 Eb1_deadmute_f1.aif 2"
				}

			}
, 			{
				"box" : 				{
					"fontname" : "Helvetica Neue",
					"fontsize" : 12.0,
					"id" : "obj-660",
					"maxclass" : "newobj",
					"numinlets" : 1,
					"numoutlets" : 2,
					"outlettype" : [ "float", "bang" ],
					"patching_rect" : [ 1450.0, 450.0, 296.0, 20.0 ],
					"text" : "buffer~ Eb1_resmute_f1_rev Eb1_resmute_f1_rev.aif 2"
				}

			}
, 			{
				"box" : 				{
					"fontname" : "Helvetica Neue",
					"fontsize" : 12.0,
					"id" : "obj-661",
					"maxclass" : "newobj",
					"numinlets" : 1,
					"numoutlets" : 2,
					"outlettype" : [ "float", "bang" ],
					"patching_rect" : [ 1470.0, 470.0, 318.0, 20.0 ],
					"text" : "buffer~ Eb2_deadmute_f1_rev Eb2_deadmute_f1_rev.aif 2"
				}

			}
, 			{
				"box" : 				{
					"fontname" : "Helvetica Neue",
					"fontsize" : 12.0,
					"id" : "obj-662",
					"maxclass" : "newobj",
					"numinlets" : 1,
					"numoutlets" : 2,
					"outlettype" : [ "float", "bang" ],
					"patching_rect" : [ 1490.0, 490.0, 276.0, 20.0 ],
					"text" : "buffer~ Eb2_deadmute_f2 Eb2_deadmute_f2.aif 2"
				}

			}
, 			{
				"box" : 				{
					"fontname" : "Helvetica Neue",
					"fontsize" : 12.0,
					"id" : "obj-663",
					"maxclass" : "newobj",
					"numinlets" : 1,
					"numoutlets" : 2,
					"outlettype" : [ "float", "bang" ],
					"patching_rect" : [ 1510.0, 510.0, 296.0, 20.0 ],
					"text" : "buffer~ Eb2_resmute_f1_rev Eb2_resmute_f1_rev.aif 2"
				}

			}
, 			{
				"box" : 				{
					"fontname" : "Helvetica Neue",
					"fontsize" : 12.0,
					"id" : "obj-664",
					"maxclass" : "newobj",
					"numinlets" : 1,
					"numoutlets" : 2,
					"outlettype" : [ "float", "bang" ],
					"patching_rect" : [ 1530.0, 530.0, 276.0, 20.0 ],
					"text" : "buffer~ Eb3_deadmute_f1 Eb3_deadmute_f1.aif 2"
				}

			}
, 			{
				"box" : 				{
					"fontname" : "Helvetica Neue",
					"fontsize" : 12.0,
					"id" : "obj-665",
					"maxclass" : "newobj",
					"numinlets" : 1,
					"numoutlets" : 2,
					"outlettype" : [ "float", "bang" ],
					"patching_rect" : [ 1550.0, 50.0, 318.0, 20.0 ],
					"text" : "buffer~ Eb3_deadmute_f1_rev Eb3_deadmute_f1_rev.aif 2"
				}

			}
, 			{
				"box" : 				{
					"fontname" : "Helvetica Neue",
					"fontsize" : 12.0,
					"id" : "obj-666",
					"maxclass" : "newobj",
					"numinlets" : 1,
					"numoutlets" : 2,
					"outlettype" : [ "float", "bang" ],
					"patching_rect" : [ 1570.0, 70.0, 276.0, 20.0 ],
					"text" : "buffer~ Eb4_deadmute_f1 Eb4_deadmute_f1.aif 2"
				}

			}
, 			{
				"box" : 				{
					"fontname" : "Helvetica Neue",
					"fontsize" : 12.0,
					"id" : "obj-667",
					"maxclass" : "newobj",
					"numinlets" : 1,
					"numoutlets" : 2,
					"outlettype" : [ "float", "bang" ],
					"patching_rect" : [ 1590.0, 90.0, 318.0, 20.0 ],
					"text" : "buffer~ Eb4_deadmute_f1_rev Eb4_deadmute_f1_rev.aif 2"
				}

			}
, 			{
				"box" : 				{
					"fontname" : "Helvetica Neue",
					"fontsize" : 12.0,
					"id" : "obj-668",
					"maxclass" : "newobj",
					"numinlets" : 1,
					"numoutlets" : 2,
					"outlettype" : [ "float", "bang" ],
					"patching_rect" : [ 1610.0, 110.0, 296.0, 20.0 ],
					"text" : "buffer~ Eb4_resmute_f1_rev Eb4_resmute_f1_rev.aif 2"
				}

			}
, 			{
				"box" : 				{
					"fontname" : "Helvetica Neue",
					"fontsize" : 12.0,
					"id" : "obj-669",
					"maxclass" : "newobj",
					"numinlets" : 1,
					"numoutlets" : 2,
					"outlettype" : [ "float", "bang" ],
					"patching_rect" : [ 1630.0, 130.0, 276.0, 20.0 ],
					"text" : "buffer~ Eb5_deadmute_f1 Eb5_deadmute_f1.aif 2"
				}

			}
, 			{
				"box" : 				{
					"fontname" : "Helvetica Neue",
					"fontsize" : 12.0,
					"id" : "obj-670",
					"maxclass" : "newobj",
					"numinlets" : 1,
					"numoutlets" : 2,
					"outlettype" : [ "float", "bang" ],
					"patching_rect" : [ 1650.0, 150.0, 318.0, 20.0 ],
					"text" : "buffer~ Eb5_deadmute_f1_rev Eb5_deadmute_f1_rev.aif 2"
				}

			}
, 			{
				"box" : 				{
					"fontname" : "Helvetica Neue",
					"fontsize" : 12.0,
					"id" : "obj-671",
					"maxclass" : "newobj",
					"numinlets" : 1,
					"numoutlets" : 2,
					"outlettype" : [ "float", "bang" ],
					"patching_rect" : [ 1670.0, 170.0, 296.0, 20.0 ],
					"text" : "buffer~ Eb5_resmute_f1_rev Eb5_resmute_f1_rev.aif 2"
				}

			}
, 			{
				"box" : 				{
					"fontname" : "Helvetica Neue",
					"fontsize" : 12.0,
					"id" : "obj-672",
					"maxclass" : "newobj",
					"numinlets" : 1,
					"numoutlets" : 2,
					"outlettype" : [ "float", "bang" ],
					"patching_rect" : [ 1690.0, 190.0, 276.0, 20.0 ],
					"text" : "buffer~ Eb6_deadmute_f1 Eb6_deadmute_f1.aif 2"
				}

			}
, 			{
				"box" : 				{
					"fontname" : "Helvetica Neue",
					"fontsize" : 12.0,
					"id" : "obj-673",
					"maxclass" : "newobj",
					"numinlets" : 1,
					"numoutlets" : 2,
					"outlettype" : [ "float", "bang" ],
					"patching_rect" : [ 1710.0, 210.0, 296.0, 20.0 ],
					"text" : "buffer~ Eb6_resmute_f1_rev Eb6_resmute_f1_rev.aif 2"
				}

			}
, 			{
				"box" : 				{
					"fontname" : "Helvetica Neue",
					"fontsize" : 12.0,
					"id" : "obj-674",
					"maxclass" : "newobj",
					"numinlets" : 1,
					"numoutlets" : 2,
					"outlettype" : [ "float", "bang" ],
					"patching_rect" : [ 1730.0, 230.0, 276.0, 20.0 ],
					"text" : "buffer~ Eb7_deadmute_f1 Eb7_deadmute_f1.aif 2"
				}

			}
, 			{
				"box" : 				{
					"fontname" : "Helvetica Neue",
					"fontsize" : 12.0,
					"id" : "obj-675",
					"maxclass" : "newobj",
					"numinlets" : 1,
					"numoutlets" : 2,
					"outlettype" : [ "float", "bang" ],
					"patching_rect" : [ 1750.0, 250.0, 240.0, 20.0 ],
					"text" : "buffer~ Ef3_harmonic1 Ef3_harmonic1.aif 2"
				}

			}
, 			{
				"box" : 				{
					"fontname" : "Helvetica Neue",
					"fontsize" : 12.0,
					"id" : "obj-676",
					"maxclass" : "newobj",
					"numinlets" : 1,
					"numoutlets" : 2,
					"outlettype" : [ "float", "bang" ],
					"patching_rect" : [ 1770.0, 270.0, 208.0, 20.0 ],
					"text" : "buffer~ Ef4_magnet Ef4_magnet.aif 2"
				}

			}
, 			{
				"box" : 				{
					"fontname" : "Helvetica Neue",
					"fontsize" : 12.0,
					"id" : "obj-677",
					"maxclass" : "newobj",
					"numinlets" : 1,
					"numoutlets" : 2,
					"outlettype" : [ "float", "bang" ],
					"patching_rect" : [ 1790.0, 290.0, 208.0, 20.0 ],
					"text" : "buffer~ Ef5_magnet Ef5_magnet.aif 2"
				}

			}
, 			{
				"box" : 				{
					"fontname" : "Helvetica Neue",
					"fontsize" : 12.0,
					"id" : "obj-678",
					"maxclass" : "newobj",
					"numinlets" : 1,
					"numoutlets" : 2,
					"outlettype" : [ "float", "bang" ],
					"patching_rect" : [ 1810.0, 310.0, 208.0, 20.0 ],
					"text" : "buffer~ Ef6_magnet Ef6_magnet.aif 2"
				}

			}
, 			{
				"box" : 				{
					"fontname" : "Helvetica Neue",
					"fontsize" : 12.0,
					"id" : "obj-679",
					"maxclass" : "newobj",
					"numinlets" : 1,
					"numoutlets" : 2,
					"outlettype" : [ "float", "bang" ],
					"patching_rect" : [ 1830.0, 330.0, 200.0, 20.0 ],
					"text" : "buffer~ F4_magnet F4_magnet.aif 2"
				}

			}
, 			{
				"box" : 				{
					"fontname" : "Helvetica Neue",
					"fontsize" : 12.0,
					"id" : "obj-680",
					"maxclass" : "newobj",
					"numinlets" : 1,
					"numoutlets" : 2,
					"outlettype" : [ "float", "bang" ],
					"patching_rect" : [ 1850.0, 350.0, 200.0, 20.0 ],
					"text" : "buffer~ F5_magnet F5_magnet.aif 2"
				}

			}
, 			{
				"box" : 				{
					"fontname" : "Helvetica Neue",
					"fontsize" : 12.0,
					"id" : "obj-681",
					"maxclass" : "newobj",
					"numinlets" : 1,
					"numoutlets" : 2,
					"outlettype" : [ "float", "bang" ],
					"patching_rect" : [ 1870.0, 370.0, 200.0, 20.0 ],
					"text" : "buffer~ F6_magnet F6_magnet.aif 2"
				}

			}
, 			{
				"box" : 				{
					"fontname" : "Helvetica Neue",
					"fontsize" : 12.0,
					"id" : "obj-682",
					"maxclass" : "newobj",
					"numinlets" : 1,
					"numoutlets" : 2,
					"outlettype" : [ "float", "bang" ],
					"patching_rect" : [ 1890.0, 390.0, 272.0, 20.0 ],
					"text" : "buffer~ Fs1_deadmute_f1 Fs1_deadmute_f1.aif 2"
				}

			}
, 			{
				"box" : 				{
					"fontname" : "Helvetica Neue",
					"fontsize" : 12.0,
					"id" : "obj-683",
					"maxclass" : "newobj",
					"numinlets" : 1,
					"numoutlets" : 2,
					"outlettype" : [ "float", "bang" ],
					"patching_rect" : [ 1910.0, 410.0, 294.0, 20.0 ],
					"text" : "buffer~ Fs1_resmute_f1_rev Fs1_resmute_f1_rev.aif 2"
				}

			}
, 			{
				"box" : 				{
					"fontname" : "Helvetica Neue",
					"fontsize" : 12.0,
					"id" : "obj-684",
					"maxclass" : "newobj",
					"numinlets" : 1,
					"numoutlets" : 2,
					"outlettype" : [ "float", "bang" ],
					"patching_rect" : [ 1930.0, 430.0, 272.0, 20.0 ],
					"text" : "buffer~ Fs2_deadmute_f1 Fs2_deadmute_f1.aif 2"
				}

			}
, 			{
				"box" : 				{
					"fontname" : "Helvetica Neue",
					"fontsize" : 12.0,
					"id" : "obj-685",
					"maxclass" : "newobj",
					"numinlets" : 1,
					"numoutlets" : 2,
					"outlettype" : [ "float", "bang" ],
					"patching_rect" : [ 1950.0, 450.0, 316.0, 20.0 ],
					"text" : "buffer~ Fs2_deadmute_f1_rev Fs2_deadmute_f1_rev.aif 2"
				}

			}
, 			{
				"box" : 				{
					"fontname" : "Helvetica Neue",
					"fontsize" : 12.0,
					"id" : "obj-686",
					"maxclass" : "newobj",
					"numinlets" : 1,
					"numoutlets" : 2,
					"outlettype" : [ "float", "bang" ],
					"patching_rect" : [ 1970.0, 470.0, 272.0, 20.0 ],
					"text" : "buffer~ Fs3_deadmute_f1 Fs3_deadmute_f1.aif 2"
				}

			}
, 			{
				"box" : 				{
					"fontname" : "Helvetica Neue",
					"fontsize" : 12.0,
					"id" : "obj-687",
					"maxclass" : "newobj",
					"numinlets" : 1,
					"numoutlets" : 2,
					"outlettype" : [ "float", "bang" ],
					"patching_rect" : [ 1990.0, 490.0, 316.0, 20.0 ],
					"text" : "buffer~ Fs3_deadmute_f1_rev Fs3_deadmute_f1_rev.aif 2"
				}

			}
, 			{
				"box" : 				{
					"fontname" : "Helvetica Neue",
					"fontsize" : 12.0,
					"id" : "obj-688",
					"maxclass" : "newobj",
					"numinlets" : 1,
					"numoutlets" : 2,
					"outlettype" : [ "float", "bang" ],
					"patching_rect" : [ 2010.0, 510.0, 294.0, 20.0 ],
					"text" : "buffer~ Fs3_resmute_f1_rev Fs3_resmute_f1_rev.aif 2"
				}

			}
, 			{
				"box" : 				{
					"fontname" : "Helvetica Neue",
					"fontsize" : 12.0,
					"id" : "obj-689",
					"maxclass" : "newobj",
					"numinlets" : 1,
					"numoutlets" : 2,
					"outlettype" : [ "float", "bang" ],
					"patching_rect" : [ 2030.0, 530.0, 272.0, 20.0 ],
					"text" : "buffer~ Fs4_deadmute_f1 Fs4_deadmute_f1.aif 2"
				}

			}
, 			{
				"box" : 				{
					"fontname" : "Helvetica Neue",
					"fontsize" : 12.0,
					"id" : "obj-690",
					"maxclass" : "newobj",
					"numinlets" : 1,
					"numoutlets" : 2,
					"outlettype" : [ "float", "bang" ],
					"patching_rect" : [ 2050.0, 50.0, 316.0, 20.0 ],
					"text" : "buffer~ Fs4_deadmute_f1_rev Fs4_deadmute_f1_rev.aif 2"
				}

			}
, 			{
				"box" : 				{
					"fontname" : "Helvetica Neue",
					"fontsize" : 12.0,
					"id" : "obj-691",
					"maxclass" : "newobj",
					"numinlets" : 1,
					"numoutlets" : 2,
					"outlettype" : [ "float", "bang" ],
					"patching_rect" : [ 2070.0, 70.0, 212.0, 20.0 ],
					"text" : "buffer~ Fs4_magnet Fs4_magnet.aif 2"
				}

			}
, 			{
				"box" : 				{
					"fontname" : "Helvetica Neue",
					"fontsize" : 12.0,
					"id" : "obj-692",
					"maxclass" : "newobj",
					"numinlets" : 1,
					"numoutlets" : 2,
					"outlettype" : [ "float", "bang" ],
					"patching_rect" : [ 2090.0, 90.0, 294.0, 20.0 ],
					"text" : "buffer~ Fs4_resmute_f1_rev Fs4_resmute_f1_rev.aif 2"
				}

			}
, 			{
				"box" : 				{
					"fontname" : "Helvetica Neue",
					"fontsize" : 12.0,
					"id" : "obj-693",
					"maxclass" : "newobj",
					"numinlets" : 1,
					"numoutlets" : 2,
					"outlettype" : [ "float", "bang" ],
					"patching_rect" : [ 2110.0, 110.0, 272.0, 20.0 ],
					"text" : "buffer~ Fs5_deadmute_f1 Fs5_deadmute_f1.aif 2"
				}

			}
, 			{
				"box" : 				{
					"fontname" : "Helvetica Neue",
					"fontsize" : 12.0,
					"id" : "obj-694",
					"maxclass" : "newobj",
					"numinlets" : 1,
					"numoutlets" : 2,
					"outlettype" : [ "float", "bang" ],
					"patching_rect" : [ 2130.0, 130.0, 316.0, 20.0 ],
					"text" : "buffer~ Fs5_deadmute_f1_rev Fs5_deadmute_f1_rev.aif 2"
				}

			}
, 			{
				"box" : 				{
					"fontname" : "Helvetica Neue",
					"fontsize" : 12.0,
					"id" : "obj-695",
					"maxclass" : "newobj",
					"numinlets" : 1,
					"numoutlets" : 2,
					"outlettype" : [ "float", "bang" ],
					"patching_rect" : [ 2150.0, 150.0, 212.0, 20.0 ],
					"text" : "buffer~ Fs5_magnet Fs5_magnet.aif 2"
				}

			}
, 			{
				"box" : 				{
					"fontname" : "Helvetica Neue",
					"fontsize" : 12.0,
					"id" : "obj-696",
					"maxclass" : "newobj",
					"numinlets" : 1,
					"numoutlets" : 2,
					"outlettype" : [ "float", "bang" ],
					"patching_rect" : [ 2170.0, 170.0, 294.0, 20.0 ],
					"text" : "buffer~ Fs5_resmute_f1_rev Fs5_resmute_f1_rev.aif 2"
				}

			}
, 			{
				"box" : 				{
					"fontname" : "Helvetica Neue",
					"fontsize" : 12.0,
					"id" : "obj-697",
					"maxclass" : "newobj",
					"numinlets" : 1,
					"numoutlets" : 2,
					"outlettype" : [ "float", "bang" ],
					"patching_rect" : [ 2190.0, 190.0, 272.0, 20.0 ],
					"text" : "buffer~ Fs6_deadmute_f1 Fs6_deadmute_f1.aif 2"
				}

			}
, 			{
				"box" : 				{
					"fontname" : "Helvetica Neue",
					"fontsize" : 12.0,
					"id" : "obj-698",
					"maxclass" : "newobj",
					"numinlets" : 1,
					"numoutlets" : 2,
					"outlettype" : [ "float", "bang" ],
					"patching_rect" : [ 2210.0, 210.0, 212.0, 20.0 ],
					"text" : "buffer~ Fs6_magnet Fs6_magnet.aif 2"
				}

			}
, 			{
				"box" : 				{
					"fontname" : "Helvetica Neue",
					"fontsize" : 12.0,
					"id" : "obj-699",
					"maxclass" : "newobj",
					"numinlets" : 1,
					"numoutlets" : 2,
					"outlettype" : [ "float", "bang" ],
					"patching_rect" : [ 2230.0, 230.0, 294.0, 20.0 ],
					"text" : "buffer~ Fs6_resmute_f1_rev Fs6_resmute_f1_rev.aif 2"
				}

			}
, 			{
				"box" : 				{
					"fontname" : "Helvetica Neue",
					"fontsize" : 12.0,
					"id" : "obj-700",
					"maxclass" : "newobj",
					"numinlets" : 1,
					"numoutlets" : 2,
					"outlettype" : [ "float", "bang" ],
					"patching_rect" : [ 2250.0, 250.0, 204.0, 20.0 ],
					"text" : "buffer~ G4_magnet G4_magnet.aif 2"
				}

			}
, 			{
				"box" : 				{
					"fontname" : "Helvetica Neue",
					"fontsize" : 12.0,
					"id" : "obj-701",
					"maxclass" : "newobj",
					"numinlets" : 1,
					"numoutlets" : 2,
					"outlettype" : [ "float", "bang" ],
					"patching_rect" : [ 2270.0, 270.0, 204.0, 20.0 ],
					"text" : "buffer~ G5_magnet G5_magnet.aif 2"
				}

			}
, 			{
				"box" : 				{
					"fontname" : "Helvetica Neue",
					"fontsize" : 12.0,
					"id" : "obj-702",
					"maxclass" : "newobj",
					"numinlets" : 1,
					"numoutlets" : 2,
					"outlettype" : [ "float", "bang" ],
					"patching_rect" : [ 2290.0, 290.0, 216.0, 20.0 ],
					"text" : "buffer~ Gs4_magnet Gs4_magnet.aif 2"
				}

			}
, 			{
				"box" : 				{
					"fontname" : "Helvetica Neue",
					"fontsize" : 12.0,
					"id" : "obj-703",
					"maxclass" : "newobj",
					"numinlets" : 1,
					"numoutlets" : 2,
					"outlettype" : [ "float", "bang" ],
					"patching_rect" : [ 2310.0, 310.0, 216.0, 20.0 ],
					"text" : "buffer~ Gs5_magnet Gs5_magnet.aif 2"
				}

			}
, 			{
				"box" : 				{
					"fontname" : "Helvetica Neue",
					"fontsize" : 12.0,
					"id" : "obj-704",
					"maxclass" : "newobj",
					"numinlets" : 1,
					"numoutlets" : 2,
					"outlettype" : [ "float", "bang" ],
					"patching_rect" : [ 2330.0, 330.0, 178.0, 20.0 ],
					"text" : "buffer~ caulk_A3 caulk_A3.aif 2"
				}

			}
, 			{
				"box" : 				{
					"fontname" : "Helvetica Neue",
					"fontsize" : 12.0,
					"id" : "obj-705",
					"maxclass" : "newobj",
					"numinlets" : 1,
					"numoutlets" : 2,
					"outlettype" : [ "float", "bang" ],
					"patching_rect" : [ 2350.0, 350.0, 178.0, 20.0 ],
					"text" : "buffer~ caulk_A5 caulk_A5.aif 2"
				}

			}
, 			{
				"box" : 				{
					"fontname" : "Helvetica Neue",
					"fontsize" : 12.0,
					"id" : "obj-706",
					"maxclass" : "newobj",
					"numinlets" : 1,
					"numoutlets" : 2,
					"outlettype" : [ "float", "bang" ],
					"patching_rect" : [ 2370.0, 370.0, 180.0, 20.0 ],
					"text" : "buffer~ caulk_C4 caulk_C4.aif 2"
				}

			}
, 			{
				"box" : 				{
					"fontname" : "Helvetica Neue",
					"fontsize" : 12.0,
					"id" : "obj-707",
					"maxclass" : "newobj",
					"numinlets" : 1,
					"numoutlets" : 2,
					"outlettype" : [ "float", "bang" ],
					"patching_rect" : [ 2390.0, 390.0, 192.0, 20.0 ],
					"text" : "buffer~ caulk_Cs6 caulk_Cs6.aif 2"
				}

			}
, 			{
				"box" : 				{
					"fontname" : "Helvetica Neue",
					"fontsize" : 12.0,
					"id" : "obj-708",
					"maxclass" : "newobj",
					"numinlets" : 1,
					"numoutlets" : 2,
					"outlettype" : [ "float", "bang" ],
					"patching_rect" : [ 2410.0, 410.0, 192.0, 20.0 ],
					"text" : "buffer~ caulk_Ds4 caulk_Ds4.aif 2"
				}

			}
, 			{
				"box" : 				{
					"fontname" : "Helvetica Neue",
					"fontsize" : 12.0,
					"id" : "obj-709",
					"maxclass" : "newobj",
					"numinlets" : 1,
					"numoutlets" : 2,
					"outlettype" : [ "float", "bang" ],
					"patching_rect" : [ 2430.0, 430.0, 188.0, 20.0 ],
					"text" : "buffer~ caulk_Fs4 caulk_Fs4.aif 2"
				}

			}
, 			{
				"box" : 				{
					"fontname" : "Helvetica Neue",
					"fontsize" : 12.0,
					"id" : "obj-710",
					"maxclass" : "newobj",
					"numinlets" : 1,
					"numoutlets" : 2,
					"outlettype" : [ "float", "bang" ],
					"patching_rect" : [ 2450.0, 450.0, 188.0, 20.0 ],
					"text" : "buffer~ caulk_Fs5 caulk_Fs5.aif 2"
				}

			}
, 			{
				"box" : 				{
					"fontname" : "Helvetica Neue",
					"fontsize" : 12.0,
					"id" : "obj-711",
					"maxclass" : "newobj",
					"numinlets" : 1,
					"numoutlets" : 2,
					"outlettype" : [ "float", "bang" ],
					"patching_rect" : [ 2470.0, 470.0, 192.0, 20.0 ],
					"text" : "buffer~ caulk_Gs3 caulk_Gs3.aif 2"
				}

			}
, 			{
				"box" : 				{
					"fontname" : "Helvetica Neue",
					"fontsize" : 12.0,
					"id" : "obj-712",
					"maxclass" : "newobj",
					"numinlets" : 1,
					"numoutlets" : 2,
					"outlettype" : [ "float", "bang" ],
					"patching_rect" : [ 2490.0, 490.0, 162.0, 20.0 ],
					"text" : "buffer~ clave_1 clave_1.aif 2"
				}

			}
, 			{
				"box" : 				{
					"fontname" : "Helvetica Neue",
					"fontsize" : 12.0,
					"id" : "obj-713",
					"maxclass" : "newobj",
					"numinlets" : 1,
					"numoutlets" : 2,
					"outlettype" : [ "float", "bang" ],
					"patching_rect" : [ 2510.0, 510.0, 162.0, 20.0 ],
					"text" : "buffer~ clave_2 clave_2.aif 2"
				}

			}
, 			{
				"box" : 				{
					"fontname" : "Helvetica Neue",
					"fontsize" : 12.0,
					"id" : "obj-714",
					"maxclass" : "newobj",
					"numinlets" : 1,
					"numoutlets" : 2,
					"outlettype" : [ "float", "bang" ],
					"patching_rect" : [ 2530.0, 530.0, 162.0, 20.0 ],
					"text" : "buffer~ clave_3 clave_3.aif 2"
				}

			}
, 			{
				"box" : 				{
					"fontname" : "Helvetica Neue",
					"fontsize" : 12.0,
					"id" : "obj-715",
					"maxclass" : "newobj",
					"numinlets" : 1,
					"numoutlets" : 2,
					"outlettype" : [ "float", "bang" ],
					"patching_rect" : [ 2550.0, 50.0, 162.0, 20.0 ],
					"text" : "buffer~ clave_4 clave_4.aif 2"
				}

			}
, 			{
				"box" : 				{
					"fontname" : "Helvetica Neue",
					"fontsize" : 12.0,
					"id" : "obj-716",
					"maxclass" : "newobj",
					"numinlets" : 1,
					"numoutlets" : 2,
					"outlettype" : [ "float", "bang" ],
					"patching_rect" : [ 2570.0, 70.0, 258.0, 20.0 ],
					"text" : "buffer~ clave_loud_low1 clave_loud_low1.aif 2"
				}

			}
, 			{
				"box" : 				{
					"fontname" : "Helvetica Neue",
					"fontsize" : 12.0,
					"id" : "obj-717",
					"maxclass" : "newobj",
					"numinlets" : 1,
					"numoutlets" : 2,
					"outlettype" : [ "float", "bang" ],
					"patching_rect" : [ 2590.0, 90.0, 258.0, 20.0 ],
					"text" : "buffer~ clave_loud_low2 clave_loud_low2.aif 2"
				}

			}
, 			{
				"box" : 				{
					"fontname" : "Helvetica Neue",
					"fontsize" : 12.0,
					"id" : "obj-718",
					"maxclass" : "newobj",
					"numinlets" : 1,
					"numoutlets" : 2,
					"outlettype" : [ "float", "bang" ],
					"patching_rect" : [ 2610.0, 110.0, 202.0, 20.0 ],
					"text" : "buffer~ clave_mid1 clave_mid1.aif 2"
				}

			}
, 			{
				"box" : 				{
					"fontname" : "Helvetica Neue",
					"fontsize" : 12.0,
					"id" : "obj-719",
					"maxclass" : "newobj",
					"numinlets" : 1,
					"numoutlets" : 2,
					"outlettype" : [ "float", "bang" ],
					"patching_rect" : [ 2630.0, 130.0, 254.0, 20.0 ],
					"text" : "buffer~ clave_soft_mid2 clave_soft_mid2.aif 2"
				}

			}
, 			{
				"box" : 				{
					"fontname" : "Helvetica Neue",
					"fontsize" : 12.0,
					"id" : "obj-720",
					"maxclass" : "newobj",
					"numinlets" : 1,
					"numoutlets" : 2,
					"outlettype" : [ "float", "bang" ],
					"patching_rect" : [ 2650.0, 150.0, 216.0, 20.0 ],
					"text" : "buffer~ guitarslide_1 guitarslide_1.aif 2"
				}

			}
, 			{
				"box" : 				{
					"fontname" : "Helvetica Neue",
					"fontsize" : 12.0,
					"id" : "obj-721",
					"maxclass" : "newobj",
					"numinlets" : 1,
					"numoutlets" : 2,
					"outlettype" : [ "float", "bang" ],
					"patching_rect" : [ 2670.0, 170.0, 216.0, 20.0 ],
					"text" : "buffer~ guitarslide_2 guitarslide_2.aif 2"
				}

			}
, 			{
				"box" : 				{
					"fontname" : "Helvetica Neue",
					"fontsize" : 12.0,
					"id" : "obj-722",
					"maxclass" : "newobj",
					"numinlets" : 1,
					"numoutlets" : 2,
					"outlettype" : [ "float", "bang" ],
					"patching_rect" : [ 2690.0, 190.0, 216.0, 20.0 ],
					"text" : "buffer~ guitarslide_3 guitarslide_3.aif 2"
				}

			}
, 			{
				"box" : 				{
					"fontname" : "Helvetica Neue",
					"fontsize" : 12.0,
					"id" : "obj-723",
					"maxclass" : "newobj",
					"numinlets" : 1,
					"numoutlets" : 2,
					"outlettype" : [ "float", "bang" ],
					"patching_rect" : [ 2710.0, 210.0, 248.0, 20.0 ],
					"text" : "buffer~ guitarslide_long guitarslide_long.aif 2"
				}

			}
, 			{
				"box" : 				{
					"fontname" : "Helvetica Neue",
					"fontsize" : 12.0,
					"id" : "obj-724",
					"maxclass" : "newobj",
					"numinlets" : 1,
					"numoutlets" : 2,
					"outlettype" : [ "float", "bang" ],
					"patching_rect" : [ 2730.0, 230.0, 250.0, 20.0 ],
					"text" : "buffer~ guitarslide_loud guitarslide_loud.aif 2"
				}

			}
, 			{
				"box" : 				{
					"fontname" : "Helvetica Neue",
					"fontsize" : 12.0,
					"id" : "obj-725",
					"maxclass" : "newobj",
					"numinlets" : 1,
					"numoutlets" : 2,
					"outlettype" : [ "float", "bang" ],
					"patching_rect" : [ 2750.0, 250.0, 284.0, 20.0 ],
					"text" : "buffer~ guitarslide_tremelo guitarslide_tremelo.aif 2"
				}

			}
, 			{
				"box" : 				{
					"fontname" : "Helvetica Neue",
					"fontsize" : 12.0,
					"id" : "obj-726",
					"maxclass" : "newobj",
					"numinlets" : 1,
					"numoutlets" : 2,
					"outlettype" : [ "float", "bang" ],
					"patching_rect" : [ 2770.0, 270.0, 170.0, 20.0 ],
					"text" : "buffer~ knock_1 knock_1.aif 2"
				}

			}
, 			{
				"box" : 				{
					"fontname" : "Helvetica Neue",
					"fontsize" : 12.0,
					"id" : "obj-727",
					"maxclass" : "newobj",
					"numinlets" : 1,
					"numoutlets" : 2,
					"outlettype" : [ "float", "bang" ],
					"patching_rect" : [ 2790.0, 290.0, 170.0, 20.0 ],
					"text" : "buffer~ knock_2 knock_2.aif 2"
				}

			}
, 			{
				"box" : 				{
					"fontname" : "Helvetica Neue",
					"fontsize" : 12.0,
					"id" : "obj-728",
					"maxclass" : "newobj",
					"numinlets" : 1,
					"numoutlets" : 2,
					"outlettype" : [ "float", "bang" ],
					"patching_rect" : [ 2810.0, 310.0, 170.0, 20.0 ],
					"text" : "buffer~ knock_3 knock_3.aif 2"
				}

			}
, 			{
				"box" : 				{
					"fontname" : "Helvetica Neue",
					"fontsize" : 12.0,
					"id" : "obj-729",
					"maxclass" : "newobj",
					"numinlets" : 1,
					"numoutlets" : 2,
					"outlettype" : [ "float", "bang" ],
					"patching_rect" : [ 2830.0, 330.0, 170.0, 20.0 ],
					"text" : "buffer~ knock_4 knock_4.aif 2"
				}

			}
, 			{
				"box" : 				{
					"fontname" : "Helvetica Neue",
					"fontsize" : 12.0,
					"id" : "obj-730",
					"maxclass" : "newobj",
					"numinlets" : 1,
					"numoutlets" : 2,
					"outlettype" : [ "float", "bang" ],
					"patching_rect" : [ 2850.0, 350.0, 170.0, 20.0 ],
					"text" : "buffer~ knock_5 knock_5.aif 2"
				}

			}
, 			{
				"box" : 				{
					"fontname" : "Helvetica Neue",
					"fontsize" : 12.0,
					"id" : "obj-731",
					"maxclass" : "newobj",
					"numinlets" : 1,
					"numoutlets" : 2,
					"outlettype" : [ "float", "bang" ],
					"patching_rect" : [ 2870.0, 370.0, 170.0, 20.0 ],
					"text" : "buffer~ knock_6 knock_6.aif 2"
				}

			}
, 			{
				"box" : 				{
					"fontname" : "Helvetica Neue",
					"fontsize" : 12.0,
					"id" : "obj-732",
					"maxclass" : "newobj",
					"numinlets" : 1,
					"numoutlets" : 2,
					"outlettype" : [ "float", "bang" ],
					"patching_rect" : [ 2890.0, 390.0, 170.0, 20.0 ],
					"text" : "buffer~ knock_7 knock_7.aif 2"
				}

			}
, 			{
				"box" : 				{
					"fontname" : "Helvetica Neue",
					"fontsize" : 12.0,
					"id" : "obj-733",
					"maxclass" : "newobj",
					"numinlets" : 1,
					"numoutlets" : 2,
					"outlettype" : [ "float", "bang" ],
					"patching_rect" : [ 2910.0, 410.0, 170.0, 20.0 ],
					"text" : "buffer~ knock_8 knock_8.aif 2"
				}

			}
, 			{
				"box" : 				{
					"fontname" : "Helvetica Neue",
					"fontsize" : 12.0,
					"id" : "obj-734",
					"maxclass" : "newobj",
					"numinlets" : 1,
					"numoutlets" : 2,
					"outlettype" : [ "float", "bang" ],
					"patching_rect" : [ 2930.0, 430.0, 222.0, 20.0 ],
					"text" : "buffer~ pizz_improv1 pizz_improv1.aif 2"
				}

			}
, 			{
				"box" : 				{
					"fontname" : "Helvetica Neue",
					"fontsize" : 12.0,
					"id" : "obj-735",
					"maxclass" : "newobj",
					"numinlets" : 1,
					"numoutlets" : 2,
					"outlettype" : [ "float", "bang" ],
					"patching_rect" : [ 2950.0, 450.0, 222.0, 20.0 ],
					"text" : "buffer~ pizz_improv2 pizz_improv2.aif 2"
				}

			}
, 			{
				"box" : 				{
					"fontname" : "Helvetica Neue",
					"fontsize" : 12.0,
					"id" : "obj-736",
					"maxclass" : "newobj",
					"numinlets" : 1,
					"numoutlets" : 2,
					"outlettype" : [ "float", "bang" ],
					"patching_rect" : [ 2970.0, 470.0, 222.0, 20.0 ],
					"text" : "buffer~ pizz_improv3 pizz_improv3.aif 2"
				}

			}
, 			{
				"box" : 				{
					"fontname" : "Helvetica Neue",
					"fontsize" : 12.0,
					"id" : "obj-737",
					"maxclass" : "newobj",
					"numinlets" : 1,
					"numoutlets" : 2,
					"outlettype" : [ "float", "bang" ],
					"patching_rect" : [ 2990.0, 490.0, 222.0, 20.0 ],
					"text" : "buffer~ pizz_improv4 pizz_improv4.aif 2"
				}

			}
, 			{
				"box" : 				{
					"fontname" : "Helvetica Neue",
					"fontsize" : 12.0,
					"id" : "obj-738",
					"maxclass" : "newobj",
					"numinlets" : 1,
					"numoutlets" : 2,
					"outlettype" : [ "float", "bang" ],
					"patching_rect" : [ 3010.0, 510.0, 222.0, 20.0 ],
					"text" : "buffer~ pizz_improv5 pizz_improv5.aif 2"
				}

			}
, 			{
				"box" : 				{
					"fontname" : "Helvetica Neue",
					"fontsize" : 12.0,
					"id" : "obj-739",
					"maxclass" : "newobj",
					"numinlets" : 1,
					"numoutlets" : 2,
					"outlettype" : [ "float", "bang" ],
					"patching_rect" : [ 3030.0, 530.0, 212.0, 20.0 ],
					"text" : "buffer~ scrub1_light scrub1_light.aif 2"
				}

			}
, 			{
				"box" : 				{
					"fontname" : "Helvetica Neue",
					"fontsize" : 12.0,
					"id" : "obj-740",
					"maxclass" : "newobj",
					"numinlets" : 1,
					"numoutlets" : 2,
					"outlettype" : [ "float", "bang" ],
					"patching_rect" : [ 3050.0, 50.0, 228.0, 20.0 ],
					"text" : "buffer~ scrub1_rough scrub1_rough.aif 2"
				}

			}
, 			{
				"box" : 				{
					"fontname" : "Helvetica Neue",
					"fontsize" : 12.0,
					"id" : "obj-741",
					"maxclass" : "newobj",
					"numinlets" : 1,
					"numoutlets" : 2,
					"outlettype" : [ "float", "bang" ],
					"patching_rect" : [ 3070.0, 70.0, 212.0, 20.0 ],
					"text" : "buffer~ scrub2_light scrub2_light.aif 2"
				}

			}
, 			{
				"box" : 				{
					"fontname" : "Helvetica Neue",
					"fontsize" : 12.0,
					"id" : "obj-742",
					"maxclass" : "newobj",
					"numinlets" : 1,
					"numoutlets" : 2,
					"outlettype" : [ "float", "bang" ],
					"patching_rect" : [ 3090.0, 90.0, 228.0, 20.0 ],
					"text" : "buffer~ scrub2_rough scrub2_rough.aif 2"
				}

			}
, 			{
				"box" : 				{
					"fontname" : "Helvetica Neue",
					"fontsize" : 12.0,
					"id" : "obj-743",
					"maxclass" : "newobj",
					"numinlets" : 1,
					"numoutlets" : 2,
					"outlettype" : [ "float", "bang" ],
					"patching_rect" : [ 3110.0, 110.0, 252.0, 20.0 ],
					"text" : "buffer~ scrub3_peghigh scrub3_peghigh.aif 2"
				}

			}
, 			{
				"box" : 				{
					"fontname" : "Helvetica Neue",
					"fontsize" : 12.0,
					"id" : "obj-744",
					"maxclass" : "newobj",
					"numinlets" : 1,
					"numoutlets" : 2,
					"outlettype" : [ "float", "bang" ],
					"patching_rect" : [ 3130.0, 130.0, 244.0, 20.0 ],
					"text" : "buffer~ scrub3_peglow scrub3_peglow.aif 2"
				}

			}
, 			{
				"box" : 				{
					"fontname" : "Helvetica Neue",
					"fontsize" : 12.0,
					"id" : "obj-745",
					"maxclass" : "newobj",
					"numinlets" : 1,
					"numoutlets" : 2,
					"outlettype" : [ "float", "bang" ],
					"patching_rect" : [ 3150.0, 150.0, 192.0, 20.0 ],
					"text" : "buffer~ seagulls_1 seagulls_1.aif 2"
				}

			}
, 			{
				"box" : 				{
					"fontname" : "Helvetica Neue",
					"fontsize" : 12.0,
					"id" : "obj-746",
					"maxclass" : "newobj",
					"numinlets" : 1,
					"numoutlets" : 2,
					"outlettype" : [ "float", "bang" ],
					"patching_rect" : [ 3170.0, 170.0, 192.0, 20.0 ],
					"text" : "buffer~ seagulls_2 seagulls_2.aif 2"
				}

			}
, 			{
				"box" : 				{
					"fontname" : "Helvetica Neue",
					"fontsize" : 12.0,
					"id" : "obj-747",
					"maxclass" : "newobj",
					"numinlets" : 1,
					"numoutlets" : 2,
					"outlettype" : [ "float", "bang" ],
					"patching_rect" : [ 3190.0, 190.0, 192.0, 20.0 ],
					"text" : "buffer~ seagulls_3 seagulls_3.aif 2"
				}

			}
, 			{
				"box" : 				{
					"fontname" : "Helvetica Neue",
					"fontsize" : 12.0,
					"id" : "obj-748",
					"maxclass" : "newobj",
					"numinlets" : 1,
					"numoutlets" : 2,
					"outlettype" : [ "float", "bang" ],
					"patching_rect" : [ 3210.0, 210.0, 192.0, 20.0 ],
					"text" : "buffer~ seagulls_4 seagulls_4.aif 2"
				}

			}
, 			{
				"box" : 				{
					"fontname" : "Helvetica Neue",
					"fontsize" : 12.0,
					"id" : "obj-749",
					"maxclass" : "newobj",
					"numinlets" : 1,
					"numoutlets" : 2,
					"outlettype" : [ "float", "bang" ],
					"patching_rect" : [ 3230.0, 230.0, 192.0, 20.0 ],
					"text" : "buffer~ seagulls_5 seagulls_5.aif 2"
				}

			}
, 			{
				"box" : 				{
					"fontname" : "Helvetica Neue",
					"fontsize" : 12.0,
					"id" : "obj-750",
					"maxclass" : "newobj",
					"numinlets" : 1,
					"numoutlets" : 2,
					"outlettype" : [ "float", "bang" ],
					"patching_rect" : [ 3250.0, 250.0, 296.0, 20.0 ],
					"text" : "buffer~ seagulls_chromgliss seagulls_chromgliss.aif 2"
				}

			}
, 			{
				"box" : 				{
					"fontname" : "Helvetica Neue",
					"fontsize" : 12.0,
					"id" : "obj-751",
					"maxclass" : "newobj",
					"numinlets" : 1,
					"numoutlets" : 2,
					"outlettype" : [ "float", "bang" ],
					"patching_rect" : [ 3270.0, 270.0, 354.0, 20.0 ],
					"text" : "buffer~ superball_drag_pedal_rev superball_drag_pedal_rev.aif 2"
				}

			}
, 			{
				"box" : 				{
					"fontname" : "Helvetica Neue",
					"fontsize" : 12.0,
					"id" : "obj-752",
					"maxclass" : "newobj",
					"numinlets" : 1,
					"numoutlets" : 2,
					"outlettype" : [ "float", "bang" ],
					"patching_rect" : [ 3290.0, 290.0, 264.0, 20.0 ],
					"text" : "buffer~ superball_gliss_1 superball_gliss_1.aif 2"
				}

			}
, 			{
				"box" : 				{
					"fontname" : "Helvetica Neue",
					"fontsize" : 12.0,
					"id" : "obj-753",
					"maxclass" : "newobj",
					"numinlets" : 1,
					"numoutlets" : 2,
					"outlettype" : [ "float", "bang" ],
					"patching_rect" : [ 3310.0, 310.0, 264.0, 20.0 ],
					"text" : "buffer~ superball_gliss_2 superball_gliss_2.aif 2"
				}

			}
, 			{
				"box" : 				{
					"fontname" : "Helvetica Neue",
					"fontsize" : 12.0,
					"id" : "obj-754",
					"maxclass" : "newobj",
					"numinlets" : 1,
					"numoutlets" : 2,
					"outlettype" : [ "float", "bang" ],
					"patching_rect" : [ 3330.0, 330.0, 264.0, 20.0 ],
					"text" : "buffer~ superball_gliss_3 superball_gliss_3.aif 2"
				}

			}
 ],
		"lines" : [ 			{
				"patchline" : 				{
					"destination" : [ "obj-2", 0 ],
					"disabled" : 0,
					"hidden" : 0,
					"source" : [ "obj-152", 0 ]
				}

			}
, 			{
				"patchline" : 				{
					"destination" : [ "obj-152", 0 ],
					"disabled" : 0,
					"hidden" : 0,
					"source" : [ "obj-350", 0 ]
				}

			}
 ]
	}

}
